<?xml version="1.0" encoding="utf-8"?>
<!-- Generator: Adobe Illustrator 21.1.0, SVG Export Plug-In . SVG Version: 6.00 Build 0)  -->
<svg version="1.1" id="Zoom_1_" xmlns="http://www.w3.org/2000/svg" xmlns:xlink="http://www.w3.org/1999/xlink" x="0px" y="0px"
	 viewBox="0 0 24.5 24.5" style="enable-background:new 0 0 24.5 24.5;" xml:space="preserve">
<style type="text/css">
	.st0{fill:#57575A;}
</style>
<path class="st0" d="M24.1,22.4l-5.8-5.8c1.4-1.7,2.2-3.9,2.2-6.3C20.5,4.6,15.9,0,10.2,0S0,4.6,0,10.2s4.6,10.2,10.2,10.2
	c2.4,0,4.6-0.8,6.3-2.2l5.8,5.8c0.2,0.2,0.6,0.4,0.9,0.4s0.6-0.1,0.9-0.4C24.6,23.6,24.6,22.9,24.1,22.4z M2.5,10.2
	C2.5,6,6,2.5,10.2,2.5S18,6,18,10.2S14.5,18,10.2,18S2.5,14.5,2.5,10.2z"/>
</svg>
