<?xml version="1.0" encoding="utf-8"?>
<!-- Generator: Adobe Illustrator 21.1.0, SVG Export Plug-In . SVG Version: 6.00 Build 0)  -->
<svg version="1.1" id="Layer_1" xmlns="http://www.w3.org/2000/svg" xmlns:xlink="http://www.w3.org/1999/xlink" x="0px" y="0px"
	 viewBox="0 0 249 47.9" style="enable-background:new 0 0 249 47.9;" xml:space="preserve">
<style type="text/css">
	.st0{fill:#D1D3D3;}
</style>
<g>
	<g>
		<path class="st0" d="M80.6,38h1.5v3.5H86V38h1.5v8.4H86v-3.5h-3.8v3.5h-1.5V38z"/>
		<path class="st0" d="M96.9,37.8c2.5,0,4.3,1.9,4.3,4.3c0,2.5-1.9,4.4-4.3,4.4s-4.3-1.9-4.3-4.4C92.6,39.7,94.4,37.8,96.9,37.8z
			 M96.9,45.1c1.5,0,2.8-1.3,2.8-3c0-1.7-1.2-2.9-2.8-2.9s-2.8,1.2-2.8,2.9C94.1,43.8,95.3,45.1,96.9,45.1z"/>
		<path class="st0" d="M108,39.3h-2.7V38h7v1.3h-2.7v7.1H108V39.3z"/>
		<path class="st0" d="M116.9,38h5v1.3h-3.5v2.2h2.8v1.3h-2.8V45h3.7v1.3h-5.2V38z"/>
		<path class="st0" d="M127.2,38h1.5V45h3.6v1.3h-5.1V38z"/>
	</g>
	<g>
		<path class="st0" d="M29.9,0c11.2,11.3,19.6,25.2,24.3,40.8c-1.4,0.3-2.8,0.6-4.2,0.9l0,0C45.5,27,37.5,13.8,27.1,3
			C28,2,28.9,1,29.9,0"/>
		<path class="st0" d="M41.5,0.3c7.9,8.9,14.1,19.3,18.3,30.6c0,0-2.8,0.8-4.1,1.2l0,0c-4.1-10.7-9.9-20.4-17.3-28.9l0,0
			C39.4,2.2,40.4,1.2,41.5,0.3"/>
		<path class="st0" d="M4.1,32.1c3.6-9.4,8.5-18,14.6-25.7c1,1,2.9,3.1,2.9,3.1C14.5,18.7,9,29.3,5.6,40.8c1.4,0.3,2.8,0.6,4.2,0.9
			c3.3-10.5,8.4-20.3,14.8-29c0.9,1.1,2.7,3.5,2.7,3.5c-6.5,9.1-11.5,19.3-14.6,30.2c5.6,1,11.4,1.4,17.2,1.4
			c5.9,0,11.6-0.5,17.2-1.4c-1.2-4.1-2.5-8-4.2-11.8l0,0c-4.3,0.5-8.6,0.8-13,0.8c-1.4,0-2.8,0-4.1-0.1l0,0
			c-0.6,1.3-1.2,2.7-1.7,4.1l0,0c1.9,0.1,3.9,0.2,5.8,0.2c3.4,0,6.8-0.2,10.2-0.5c0.5,1.3,1,2.6,1.5,4l-0.1,0
			c-3.8,0.4-7.6,0.6-11.6,0.6c-4,0-7.9-0.2-11.7-0.7l0-0.1c2.9-8.3,6.8-16,11.7-23.1c2.4,3.6,4.6,7.3,6.6,11.2l4.6-0.4
			C35.6,19.1,27.8,8.8,18.4,0.3C10.5,9.2,4.2,19.6,0,30.9C1.4,31.3,2.8,31.7,4.1,32.1z"/>
	</g>
	<g>
		<path class="st0" d="M98.1,16.4V3.5l-8.1,18.3h-0.7l-8-18.3v11.9v6.4h-0.7v-6.5V6.4V1.5h2.8l7.4,16.8l7.4-16.8h2.8v4.9v10v5.4
			h-2.9V16.4z"/>
		<path class="st0" d="M132.4,21.8h-3.2c-1.1-2.6-1.5-3.7-1.5-3.7l-5.3-12.9l-3.5,8.5h5.8l-0.4,0.7h-5.6l-2.8,7.4h-1.1l8.4-20.2h0.6
			L132.4,21.8z"/>
		<path class="st0" d="M205.7,1.5v5v10v5.3h-2.9v-5.3v-10v-5H205.7z"/>
		<path class="st0" d="M249,1.5v5v10v5.3h-2.9v-5.3v-10v-5H249z"/>
		<path class="st0" d="M160.3,21.8h-3.2c-1.1-2.6-1.5-3.7-1.5-3.7l-5.3-12.9l-3.5,8.5h5.8l-0.4,0.7h-5.6l-2.8,7.4h-1.1l8.4-20.2h0.6
			L160.3,21.8z"/>
		<path class="st0" d="M186.2,13.1L186.2,13.1h-5.6l-0.4,0.7h6v2.9c0,0.9-0.1,1.6-0.4,2.2c-0.3,0.6-0.8,1.1-1.6,1.5
			c-0.8,0.4-1.7,0.6-2.7,0.6c-2,0-3.6-0.7-4.9-2.2c-1.3-1.5-2-3.9-2-7.4c0-3.5,0.7-5.9,2.1-7.3c1.4-1.4,3-2.1,4.8-2.1
			c1.8,0,3.3,0.6,4.5,1.8c0.4,0.3,0.7,0.7,1,1.1l0.6-0.7V4.3c-1.7-1.9-3.8-2.8-6.4-2.8c-3,0-5.4,1-7.2,3.1c-1.8,2.1-2.6,4.6-2.6,7.3
			c0,2.8,0.9,5.2,2.8,7c1.9,1.8,4.2,2.8,7,2.8c1.4,0,2.9-0.3,4.6-0.9c2.9-1.4,3.4-3.3,3.4-4.5v-3.2H186.2z"/>
		<path class="st0" d="M230.8,15.2c-1.9-2.5-3.2-3-4-3.4c1.9-0.3,3.3-1,4.3-1.9c1-0.9,1.4-2.1,1.4-3.3c0-1.1-0.4-2.1-1.1-2.9
			c-0.7-0.8-1.7-1.3-2.9-1.6c-1.2-0.4-2.7-0.5-4.6-0.5h-4.4v20.2h2.9V2.4h1.3c2.3,0,3.9,0.3,4.6,1.1c0.7,0.8,1,1.9,1,3.3
			c0,0.8-0.1,1.4-0.3,2c-0.2,0.5-0.5,1-0.8,1.3c-1.4,1.2-4.3,1.4-4.3,1.4l-0.4,0.7c5.3,0,8.2,8.7,8.4,9.5h2.3
			C232.3,17.3,230.8,15.2,230.8,15.2z"/>
	</g>
</g>
</svg>
