<?xml version="1.0" encoding="utf-8"?>
<!-- Generator: Adobe Illustrator 22.0.1, SVG Export Plug-In . SVG Version: 6.00 Build 0)  -->
<svg version="1.1" id="Layer_1" xmlns="http://www.w3.org/2000/svg" xmlns:xlink="http://www.w3.org/1999/xlink" x="0px" y="0px"
	 viewBox="0 0 50 50" style="enable-background:new 0 0 50 50;" xml:space="preserve">
<metadata><?xpacket begin="﻿" id="W5M0MpCehiHzreSzNTczkc9d"?>
<x:xmpmeta xmlns:x="adobe:ns:meta/" x:xmptk="Adobe XMP Core 5.6-c143 79.161210, 2017/08/11-10:28:36        ">
   <rdf:RDF xmlns:rdf="http://www.w3.org/1999/02/22-rdf-syntax-ns#">
      <rdf:Description rdf:about=""/>
   </rdf:RDF>
</x:xmpmeta>
                                                                                                    
                                                                                                    
                                                                                                    
                                                                                                    
                                                                                                    
                                                                                                    
                                                                                                    
                                                                                                    
                                                                                                    
                                                                                                    
                                                                                                    
                                                                                                    
                                                                                                    
                                                                                                    
                                                                                                    
                                                                                                    
                                                                                                    
                                                                                                    
                                                                                                    
                                                                                                    
                           
<?xpacket end="w"?></metadata>
<style type="text/css">
	.st0{fill:#DCB38D;}
</style>
<path class="st0" d="M25,1c13.2,0,24,10.8,24,24S38.2,49,25,49S1,38.2,1,25S11.8,1,25,1 M25,0C11.2,0,0,11.2,0,25s11.2,25,25,25
	s25-11.2,25-25S38.8,0,25,0L25,0z"/>
<path class="st0" d="M33.2,30l3.3-0.6c0.3-0.1,0.6-0.4,0.5-0.7c-0.1-0.3-0.4-0.6-0.7-0.5L31.8,29l-5.7-4l5.7-4l4.5,0.8
	c0,0,0.1,0,0.1,0c0.3,0,0.6-0.2,0.6-0.5c0.1-0.3-0.2-0.7-0.5-0.7L33.2,20l3.6-2.5c0.3-0.2,0.4-0.6,0.2-0.9c-0.2-0.3-0.6-0.4-0.9-0.2
	L32.5,19l0.6-3.3c0.1-0.3-0.2-0.7-0.5-0.7c-0.3-0.1-0.7,0.2-0.7,0.5L31,20l-5.4,3.8v-6.6l3.3-3.3c0.2-0.2,0.2-0.6,0-0.9
	c-0.2-0.2-0.6-0.2-0.9,0l-2.4,2.4V11c0-0.3-0.3-0.6-0.6-0.6s-0.6,0.3-0.6,0.6v4.4L22,13c-0.2-0.2-0.6-0.2-0.9,0
	c-0.2,0.2-0.2,0.6,0,0.9l3.3,3.3v6.6L19,20l-0.8-4.5c-0.1-0.3-0.4-0.6-0.7-0.5c-0.3,0.1-0.6,0.4-0.5,0.7l0.6,3.3l-3.6-2.5
	c-0.3-0.2-0.7-0.1-0.9,0.2c-0.2,0.3-0.1,0.7,0.2,0.9l3.6,2.5l-3.3,0.6c-0.3,0.1-0.6,0.4-0.5,0.7c0.1,0.3,0.3,0.5,0.6,0.5
	c0,0,0.1,0,0.1,0l4.6-0.8l5.7,4l-5.7,4l-4.5-0.8c-0.3-0.1-0.7,0.2-0.7,0.5c-0.1,0.3,0.2,0.7,0.5,0.7l3.3,0.6l-3.6,2.5
	c-0.3,0.2-0.4,0.6-0.2,0.9c0.1,0.2,0.3,0.3,0.5,0.3c0.1,0,0.2,0,0.4-0.1l3.6-2.5l-0.6,3.3c-0.1,0.3,0.2,0.7,0.5,0.7c0,0,0.1,0,0.1,0
	c0.3,0,0.6-0.2,0.6-0.5L19,30l5.4-3.8v6.6l-3.3,3.3c-0.2,0.2-0.2,0.6,0,0.9c0.1,0.1,0.3,0.2,0.4,0.2s0.3-0.1,0.4-0.2l2.4-2.4V39
	c0,0.3,0.3,0.6,0.6,0.6s0.6-0.3,0.6-0.6v-4.4L28,37c0.1,0.1,0.3,0.2,0.4,0.2s0.3-0.1,0.4-0.2c0.2-0.2,0.2-0.6,0-0.9l-3.3-3.3v-6.6
	l5.4,3.8l0.8,4.5c0.1,0.3,0.3,0.5,0.6,0.5c0,0,0.1,0,0.1,0c0.3-0.1,0.6-0.4,0.5-0.7L32.5,31l3.6,2.5c0.1,0.1,0.2,0.1,0.4,0.1
	c0.2,0,0.4-0.1,0.5-0.3c0.2-0.3,0.1-0.7-0.2-0.9L33.2,30z"/>
</svg>
