<?xml version="1.0" encoding="utf-8"?>
<!-- Generator: Adobe Illustrator 22.0.1, SVG Export Plug-In . SVG Version: 6.00 Build 0)  -->
<svg version="1.1" id="Layer_1" xmlns="http://www.w3.org/2000/svg" xmlns:xlink="http://www.w3.org/1999/xlink" x="0px" y="0px"
	 viewBox="0 0 50 50" style="enable-background:new 0 0 50 50;" xml:space="preserve">
<metadata><?xpacket begin="﻿" id="W5M0MpCehiHzreSzNTczkc9d"?>
<x:xmpmeta xmlns:x="adobe:ns:meta/" x:xmptk="Adobe XMP Core 5.6-c143 79.161210, 2017/08/11-10:28:36        ">
   <rdf:RDF xmlns:rdf="http://www.w3.org/1999/02/22-rdf-syntax-ns#">
      <rdf:Description rdf:about=""/>
   </rdf:RDF>
</x:xmpmeta>
                                                                                                    
                                                                                                    
                                                                                                    
                                                                                                    
                                                                                                    
                                                                                                    
                                                                                                    
                                                                                                    
                                                                                                    
                                                                                                    
                                                                                                    
                                                                                                    
                                                                                                    
                                                                                                    
                                                                                                    
                                                                                                    
                                                                                                    
                                                                                                    
                                                                                                    
                                                                                                    
                           
<?xpacket end="w"?></metadata>
<style type="text/css">
	.st0{fill:#DCB38D;}
</style>
<path class="st0" d="M25,1c13.2,0,24,10.8,24,24S38.2,49,25,49S1,38.2,1,25S11.8,1,25,1 M25,0C11.2,0,0,11.2,0,25s11.2,25,25,25
	s25-11.2,25-25S38.8,0,25,0L25,0z"/>
<g>
	<path class="st0" d="M39.4,30.9h-0.5v-0.5h1.2c0.3,0,0.6-0.3,0.6-0.6s-0.3-0.6-0.6-0.6h-4.5V14.9l4.5-3.7c0.2-0.2,0.3-0.4,0.2-0.7
		c-0.1-0.2-0.3-0.4-0.6-0.4L10.4,10c-0.2,0-0.5,0.2-0.6,0.4c-0.1,0.2,0,0.5,0.1,0.7l3.8,3.8v14.4H9.9c-0.3,0-0.6,0.3-0.6,0.6
		s0.3,0.6,0.6,0.6h1v0.5h-0.2c-0.8,0-1.4,0.6-1.4,1.4v6.4c0,0.8,0.6,1.4,1.4,1.4h28.7c0.8,0,1.4-0.6,1.4-1.4v-6.4
		C40.7,31.6,40.1,30.9,39.4,30.9z M39.5,32.3v6l-3.8-2.5v-3.7h3.7C39.4,32.2,39.5,32.2,39.5,32.3z M31.7,29.2h-6.5v-0.9h0V18.3h6.2
		c0.1,0,0.3,0.1,0.3,0.3V29.2z M34.4,35.6H33v-3.4h1.4V35.6z M17.6,32.2h4.4v3.4h-4.4V32.2z M23.3,32.2H24v3.4h-0.7V32.2z
		 M23.3,30.9v-0.5H24v0.5H23.3z M25.3,32.2h6.5v3.4h-6.5V32.2z M33,30.9v-0.5h1.4v0.5H33z M31.7,30.9h-6.5v-0.5h6.5V30.9z M24,28.3
		v0.9h-0.7V18.3H24L24,28.3L24,28.3z M22.1,25.2C22.1,25.2,22,25.2,22.1,25.2c-0.4,0-0.7,0.3-0.7,0.6v1.3c0,0.3,0.3,0.6,0.6,0.6
		c0,0,0,0,0.1,0v1.5h-4.4V18.5c0-0.1,0.1-0.3,0.3-0.3h4.2V25.2z M22.1,30.4v0.5h-4.4v-0.5H22.1z M16.4,30.9H15v-0.5h1.4V30.9z
		 M16.4,32.2v3.4H15v-3.4H16.4z M14.6,36.8h1.8H33h1.8l3.1,2H11.8L14.6,36.8z M37.6,30.4v0.5h-2v-0.5H37.6z M38,11.3l-3.2,2.6H14.6
		l-2.7-2.7L38,11.3z M15,15.2h19.4v14H33V18.5c0-0.8-0.7-1.5-1.5-1.5H17.9c-0.8,0-1.5,0.7-1.5,1.5v10.7H15V15.2z M12.1,30.4h1.6v0.5
		h-1.6V30.4z M10.6,32.2h3.1v3.7l-3.2,2.3v-5.8C10.5,32.2,10.6,32.2,10.6,32.2z"/>
	<path class="st0" d="M23.5,13.3h2.5c0.3,0,0.6-0.3,0.6-0.6S26.4,12,26.1,12h-2.5c-0.3,0-0.6,0.3-0.6,0.6S23.2,13.3,23.5,13.3z"/>
</g>
</svg>
