<?xml version="1.0" encoding="utf-8"?>
<!-- Generator: Adobe Illustrator 22.0.1, SVG Export Plug-In . SVG Version: 6.00 Build 0)  -->
<svg version="1.1" id="Layer_1" xmlns="http://www.w3.org/2000/svg" xmlns:xlink="http://www.w3.org/1999/xlink" x="0px" y="0px"
	 viewBox="0 0 50 50" style="enable-background:new 0 0 50 50;" xml:space="preserve">
<metadata><?xpacket begin="﻿" id="W5M0MpCehiHzreSzNTczkc9d"?>
<x:xmpmeta xmlns:x="adobe:ns:meta/" x:xmptk="Adobe XMP Core 5.6-c143 79.161210, 2017/08/11-10:28:36        ">
   <rdf:RDF xmlns:rdf="http://www.w3.org/1999/02/22-rdf-syntax-ns#">
      <rdf:Description rdf:about=""/>
   </rdf:RDF>
</x:xmpmeta>
                                                                                                    
                                                                                                    
                                                                                                    
                                                                                                    
                                                                                                    
                                                                                                    
                                                                                                    
                                                                                                    
                                                                                                    
                                                                                                    
                                                                                                    
                                                                                                    
                                                                                                    
                                                                                                    
                                                                                                    
                                                                                                    
                                                                                                    
                                                                                                    
                                                                                                    
                                                                                                    
                           
<?xpacket end="w"?></metadata>
<style type="text/css">
	.st0{fill:#DCB38D;}
</style>
<path class="st0" d="M25,1c13.2,0,24,10.8,24,24S38.2,49,25,49S1,38.2,1,25S11.8,1,25,1 M25,0C11.2,0,0,11.2,0,25s11.2,25,25,25
	s25-11.2,25-25S38.8,0,25,0L25,0z"/>
<g>
	<path class="st0" d="M39.9,37.4l-3.2-25.2C36.7,11.5,36,11,35.3,11H11.5c-0.8,0-1.4,0.6-1.4,1.4v4.3h3.4v1.1c0,0.8,0.6,1.4,1.4,1.4
		h2.8V22c0,0.3,0.3,0.6,0.6,0.6S19,22.3,19,22v-2.8h2.8c0.8,0,1.4-0.6,1.4-1.4v-1.1h2.2c0.1,0,0.2,0.1,0.3,0.2L27.2,34
		c0,0.1,0,0.2-0.1,0.2s-0.1,0.1-0.2,0.1H10.1v3.3c0,0.8,0.6,1.4,1.4,1.4h27c0.4,0,0.8-0.2,1.1-0.5S40,37.9,39.9,37.4z M22.1,17.8
		c0,0.1-0.1,0.2-0.2,0.2h-6.9c-0.1,0-0.2-0.1-0.2-0.2v-1.1h7.3V17.8z M38.6,37.7c0,0-0.1,0.1-0.1,0.1h-27c-0.1,0-0.2-0.1-0.2-0.2
		v-2.1H27c0.4,0,0.8-0.2,1.1-0.5s0.4-0.7,0.4-1.1L27,16.8c-0.1-0.8-0.7-1.4-1.5-1.4h-2.2h-9.8h-2.2v-3.1c0-0.1,0.1-0.2,0.2-0.2h23.8
		c0.1,0,0.2,0.1,0.2,0.2l3.2,25.2C38.7,37.7,38.7,37.7,38.6,37.7z"/>
	<path class="st0" d="M12.4,26.6h-1.8l0,0.6c0,0.1-0.1,1.7,0.9,2.8c0.6,0.6,1.3,0.9,2.3,1c1.1,1.4,2.8,2.2,4.7,2.2c3.3,0,6-2.7,6-6
		v-1.8h-12V26.6z M12.4,29.2c-0.4-0.4-0.5-0.9-0.6-1.3h0.6c0.1,0.6,0.2,1.1,0.4,1.6C12.7,29.5,12.5,29.4,12.4,29.2z M13.7,26.8h9.5
		v0.5c0,2.6-2.1,4.8-4.8,4.8s-4.7-2.1-4.7-4.8V26.8z"/>
	<path class="st0" d="M33,28.8c-1.5,0-2.6,1.2-2.6,2.6s1.2,2.6,2.6,2.6s2.6-1.2,2.6-2.6S34.5,28.8,33,28.8z M33,32.8
		c-0.8,0-1.4-0.6-1.4-1.4c0-0.5,0.3-1,0.8-1.2v0.3c0,0.3,0.3,0.6,0.6,0.6s0.6-0.3,0.6-0.6v-0.3c0.5,0.2,0.8,0.7,0.8,1.2
		C34.4,32.2,33.8,32.8,33,32.8z"/>
	<path class="st0" d="M30.8,24.5c0,0.9,0.8,1.7,1.7,1.7s1.7-0.8,1.7-1.7c0-0.9-0.8-1.7-1.7-1.7S30.8,23.6,30.8,24.5z M33,24.5
		c0,0.2-0.2,0.5-0.5,0.5s-0.5-0.2-0.5-0.5c0-0.2,0.2-0.5,0.5-0.5S33,24.3,33,24.5z"/>
	<path class="st0" d="M31.9,20.3c0.9,0,1.7-0.8,1.7-1.7c0-0.9-0.8-1.7-1.7-1.7s-1.7,0.8-1.7,1.7C30.2,19.5,31,20.3,31.9,20.3z
		 M31.9,18.2c0.2,0,0.5,0.2,0.5,0.5c0,0.2-0.2,0.5-0.5,0.5s-0.5-0.2-0.5-0.5C31.5,18.4,31.7,18.2,31.9,18.2z"/>
	<path class="st0" d="M16.9,23.3v-2.6c0-0.3-0.3-0.6-0.6-0.6c-0.3,0-0.6,0.3-0.6,0.6v2.6c0,0.3,0.3,0.6,0.6,0.6
		C16.7,24,16.9,23.7,16.9,23.3z"/>
	<path class="st0" d="M21.1,24.5v-3c0-0.3-0.3-0.6-0.6-0.6s-0.6,0.3-0.6,0.6v3c0,0.3,0.3,0.6,0.6,0.6S21.1,24.8,21.1,24.5z"/>
</g>
</svg>
