<?xml version="1.0" encoding="utf-8"?>
<!-- Generator: Adobe Illustrator 22.0.1, SVG Export Plug-In . SVG Version: 6.00 Build 0)  -->
<svg version="1.1" id="Layer_1" xmlns="http://www.w3.org/2000/svg" xmlns:xlink="http://www.w3.org/1999/xlink" x="0px" y="0px"
	 viewBox="0 0 50 50" style="enable-background:new 0 0 50 50;" xml:space="preserve">
<metadata><?xpacket begin="﻿" id="W5M0MpCehiHzreSzNTczkc9d"?>
<x:xmpmeta xmlns:x="adobe:ns:meta/" x:xmptk="Adobe XMP Core 5.6-c143 79.161210, 2017/08/11-10:28:36        ">
   <rdf:RDF xmlns:rdf="http://www.w3.org/1999/02/22-rdf-syntax-ns#">
      <rdf:Description rdf:about=""/>
   </rdf:RDF>
</x:xmpmeta>
                                                                                                    
                                                                                                    
                                                                                                    
                                                                                                    
                                                                                                    
                                                                                                    
                                                                                                    
                                                                                                    
                                                                                                    
                                                                                                    
                                                                                                    
                                                                                                    
                                                                                                    
                                                                                                    
                                                                                                    
                                                                                                    
                                                                                                    
                                                                                                    
                                                                                                    
                                                                                                    
                           
<?xpacket end="w"?></metadata>
<style type="text/css">
	.st0{fill:#DCB38D;}
</style>
<path class="st0" d="M25,1c13.2,0,24,10.8,24,24S38.2,49,25,49S1,38.2,1,25S11.8,1,25,1 M25,0C11.2,0,0,11.2,0,25s11.2,25,25,25
	s25-11.2,25-25S38.8,0,25,0L25,0z"/>
<path class="st0" d="M40.4,18.7h-1.7c-0.1,0-0.2,0-0.4,0v-0.7c0-0.9-0.7-1.6-1.6-1.6h-2.8c-0.9,0-1.6,0.7-1.6,1.6v3.4H30
	c-0.5-1.8-1.9-2.4-2.9-2.4c-0.2,0-0.4,0.1-0.6,0.1c-0.3-0.3-0.7-0.5-1.2-0.5H25c-0.4,0-0.7,0.1-1,0.3c-0.3-0.2-0.6-0.3-1-0.3h-0.4
	c-0.4,0-0.7,0.1-1,0.3c-0.3-0.2-0.6-0.3-1-0.3h-0.4c-0.9,0-1.6,0.7-1.6,1.6v1.2h-1.1v-3.4c0-0.9-0.7-1.6-1.6-1.6h-2.8
	c-0.9,0-1.6,0.7-1.6,1.6v0.7c-0.1,0-0.2,0-0.4,0H9.6c-0.9,0-1.6,0.7-1.6,1.6v6.9c0,0.9,0.7,1.6,1.6,1.6h1.7c0.1,0,0.2,0,0.4,0v0.7
	c0,0.9,0.7,1.6,1.6,1.6h2.8c0.9,0,1.6-0.7,1.6-1.6V26h1.3c0.1,0.4,0.3,0.8,0.6,1.2c0.6,0.9,0.8,2,0.7,3.1c-0.6,4.9-0.7,5.8-0.7,6
	c-0.1,0.3,0.1,0.7,0.4,0.8c0.1,0,0.1,0,0.2,0c0.3,0,0.5-0.2,0.6-0.4c0-0.1,0.1-0.3,0.8-6.2c0.2-1.4-0.2-2.8-0.9-3.9
	c-0.1-0.2-0.2-0.3-0.3-0.5h4.6c0.6,0,1.5-0.3,2-1c0.3-0.4,0.5-1.2,0.1-2.3v-2.3c0.1,0,0.4-0.1,0.7,0.1c0.3,0.1,1.1,0.6,1.3,2.2
	c0.1,1.2,0.2,2.3,0.2,2.3c0,0.4-0.2,0.8-0.5,1c-1.6,1.2-2.4,3.2-2.2,5.2l0.7,5.7c0,0.3,0.3,0.6,0.6,0.6c0,0,0,0,0.1,0
	c0.3,0,0.6-0.4,0.5-0.7l-0.7-5.7c-0.2-1.6,0.5-3.1,1.7-4.1c0.3-0.2,0.6-0.6,0.7-0.9h2.2v3.4c0,0.9,0.7,1.6,1.6,1.6h2.8
	c0.9,0,1.6-0.7,1.6-1.6v-0.7c0.1,0,0.2,0,0.4,0h1.7c0.9,0,1.6-0.7,1.6-1.6v-6.9C42.1,19.4,41.3,18.7,40.4,18.7z M11.3,27.6H9.6
	c-0.2,0-0.4-0.2-0.4-0.4v-6.9c0-0.2,0.2-0.4,0.4-0.4h1.7c0.2,0,0.4,0.2,0.4,0.4v6.9C11.6,27.4,11.5,27.6,11.3,27.6z M16.4,29.4
	c0,0.2-0.2,0.4-0.4,0.4h-2.8c-0.2,0-0.4-0.2-0.4-0.4v-2.2v-6.9v-2.2c0-0.2,0.2-0.4,0.4-0.4h2.8c0.2,0,0.4,0.2,0.4,0.4V29.4z M25,20
	h0.4c0.2,0,0.4,0.2,0.4,0.4v2.5c0,0.2-0.2,0.4-0.4,0.4H25c-0.2,0-0.4-0.2-0.4-0.4v-2.5C24.6,20.1,24.8,20,25,20z M22.7,20H23
	c0.2,0,0.4,0.2,0.4,0.4v2.5c0,0.2-0.2,0.4-0.4,0.4h-0.4c-0.2,0-0.4-0.2-0.4-0.4v-0.9v-1.5C22.3,20.1,22.5,20,22.7,20z M20,20.3
	c0-0.2,0.2-0.4,0.4-0.4h0.4c0.2,0,0.4,0.2,0.4,0.4v1.5c0,0.2-0.2,0.4-0.4,0.4h-0.4c-0.2,0-0.4-0.2-0.4-0.4V20.3z M24.9,24.8h-7.1v-2
	H19c0.3,0.4,0.8,0.7,1.3,0.7h0.4c0.2,0,0.3,0,0.5-0.1c0.2,0.6,0.8,1,1.5,1H23c0.4,0,0.7-0.1,1-0.3c0.3,0.2,0.6,0.3,1,0.3h0.4
	c0.2,0,0.3,0,0.4-0.1C25.6,24.6,25.1,24.8,24.9,24.8z M30.4,24.8c0-0.3-0.1-1.1-0.1-2h2.1v2H30.4z M37.1,29.4c0,0.2-0.2,0.4-0.4,0.4
	h-2.8c-0.2,0-0.4-0.2-0.4-0.4V26h0v-4.5h0v-3.4c0-0.2,0.2-0.4,0.4-0.4h2.8c0.2,0,0.4,0.2,0.4,0.4v2.2v6.9V29.4z M40.8,27.2
	c0,0.2-0.2,0.4-0.4,0.4h-1.7c-0.2,0-0.4-0.2-0.4-0.4v-6.9c0-0.2,0.2-0.4,0.4-0.4h1.7c0.2,0,0.4,0.2,0.4,0.4V27.2z"/>
</svg>
