<?xml version="1.0" encoding="utf-8"?>
<!-- Generator: Adobe Illustrator 22.0.1, SVG Export Plug-In . SVG Version: 6.00 Build 0)  -->
<svg version="1.1" id="Layer_1" xmlns="http://www.w3.org/2000/svg" xmlns:xlink="http://www.w3.org/1999/xlink" x="0px" y="0px"
	 viewBox="0 0 50 50" style="enable-background:new 0 0 50 50;" xml:space="preserve">
<metadata><?xpacket begin="﻿" id="W5M0MpCehiHzreSzNTczkc9d"?>
<x:xmpmeta xmlns:x="adobe:ns:meta/" x:xmptk="Adobe XMP Core 5.6-c143 79.161210, 2017/08/11-10:28:36        ">
   <rdf:RDF xmlns:rdf="http://www.w3.org/1999/02/22-rdf-syntax-ns#">
      <rdf:Description rdf:about=""/>
   </rdf:RDF>
</x:xmpmeta>
                                                                                                    
                                                                                                    
                                                                                                    
                                                                                                    
                                                                                                    
                                                                                                    
                                                                                                    
                                                                                                    
                                                                                                    
                                                                                                    
                                                                                                    
                                                                                                    
                                                                                                    
                                                                                                    
                                                                                                    
                                                                                                    
                                                                                                    
                                                                                                    
                                                                                                    
                                                                                                    
                           
<?xpacket end="w"?></metadata>
<style type="text/css">
	.st0{fill:#DCB38D;}
</style>
<path class="st0" d="M25,1c13.2,0,24,10.8,24,24S38.2,49,25,49S1,38.2,1,25S11.8,1,25,1 M25,0C11.2,0,0,11.2,0,25s11.2,25,25,25
	s25-11.2,25-25S38.8,0,25,0L25,0z"/>
<g>
	<path class="st0" d="M24.9,17.3l-12.7,0.9c-1.3,0.2-2.5,1-3.2,2.1c-0.8,1.1-1,2.5-0.7,3.8c0.3,1.3,1.1,2.4,2.3,3.1
		c0.2,0.1,0.5,0.2,0.7,0.3c0,0,0,0,0,0c0.5,0.2,3.5,1.8,3.6,3.6c0.1,1.5-0.3,3.3-0.7,5.1c-0.2,1-0.4,1.9-0.5,2.7
		c-0.1,0.8,0.2,1.4,0.9,1.7c0.4,0.2,0.9,0.3,1.4,0.3c1.6,0,3.5-0.7,4-1.2c0.9-1,1.6-4.1,0.3-7.4c-0.6-1.6-1.1-4.1-0.4-5.8
		c0.3-0.8,0.9-1.3,1.7-1.6c0,0,0,0,0,0l4.6-1.8l5.9-0.4l-1.7-7.7L24.9,17.3z M9.3,23.9c-0.2-1,0-2.1,0.6-3s1.5-1.5,2.5-1.6l12.3-0.9
		l0.9,4L21.3,24c0,0,0,0-0.1,0c0,0-0.1,0-0.1,0.1l-7,2.7c-1,0.3-2.1,0.2-3-0.4C10.1,25.8,9.5,24.9,9.3,23.9z M19.3,32.7
		c1.2,3,0.5,5.6-0.1,6.3c-0.4,0.4-3.1,1.2-4.2,0.7c-0.3-0.1-0.4-0.3-0.3-0.6c0.1-0.8,0.3-1.7,0.5-2.6c0.4-1.9,0.8-3.8,0.7-5.3
		c-0.1-1.4-1.1-2.5-2.2-3.3c0.2,0,0.5-0.1,0.7-0.2l4.7-1.8C19,26,19,26.1,18.9,26.2C17.8,28.7,19,32.1,19.3,32.7z M26.5,22.1l-0.9-4
		l4-1.7l1.2,5.4L26.5,22.1z"/>
	<path class="st0" d="M11.7,25.2c0.4,0.3,0.9,0.4,1.4,0.4c0.2,0,0.4,0,0.6-0.1c0.7-0.2,1.2-0.6,1.6-1.1c0.4-0.6,0.5-1.3,0.3-1.9
		c-0.3-1.4-1.7-2.3-3.1-1.9c-1.4,0.3-2.3,1.7-1.9,3.1C10.7,24.3,11.1,24.8,11.7,25.2z M12.7,21.5c0.1,0,0.2,0,0.4,0
		c0.7,0,1.4,0.5,1.5,1.2c0.1,0.4,0,0.8-0.2,1.2c-0.2,0.4-0.6,0.6-1,0.7c-0.4,0.1-0.8,0-1.2-0.2c-0.4-0.2-0.6-0.6-0.7-1
		C11.3,22.5,11.9,21.7,12.7,21.5z"/>
	<path class="st0" d="M21.2,28.3c0.1-0.3,0-0.5-0.3-0.6c-0.3-0.1-0.5,0-0.6,0.3c0,0.1-0.3,0.9,0.1,2.2c0.1,0.2,0.3,0.4,0.5,0.4
		c0,0,0.1,0,0.1,0c0.3-0.1,0.4-0.4,0.3-0.6C21,28.9,21.2,28.4,21.2,28.3z"/>
	<path class="st0" d="M34.4,16.5c0.2,0,0.3,0.1,0.6,0.1c0.1,0,0.3,0,0.5-0.1c0.5-0.1,0.8-0.3,1-0.5c0.2-0.1,0.3-0.2,0.6-0.3
		c0.3-0.1,0.4,0,0.6,0c0.2,0.1,0.6,0.1,1.1,0c0.5-0.1,0.8-0.3,1-0.5c0.2-0.1,0.3-0.2,0.6-0.3c0.3-0.1,0.4-0.3,0.4-0.6
		c-0.1-0.3-0.3-0.4-0.6-0.4c-0.5,0.1-0.8,0.3-1,0.5c-0.2,0.1-0.3,0.2-0.6,0.3c-0.3,0.1-0.4,0-0.6,0c-0.2-0.1-0.6-0.1-1.1,0
		s-0.8,0.3-1,0.5c-0.2,0.1-0.3,0.2-0.6,0.3c-0.3,0.1-0.4,0-0.6,0c-0.2-0.1-0.6-0.1-1.1,0c-0.3,0.1-0.4,0.3-0.4,0.6
		c0.1,0.3,0.3,0.4,0.6,0.4C34.1,16.4,34.2,16.5,34.4,16.5z"/>
	<path class="st0" d="M35,18.8c0.2,0,0.3,0.1,0.6,0.1c0.1,0,0.3,0,0.5-0.1c0.5-0.1,0.8-0.3,1-0.5c0.2-0.1,0.3-0.2,0.6-0.3
		c0.3-0.1,0.4,0,0.6,0c0.2,0.1,0.6,0.1,1.1,0c0.5-0.1,0.8-0.3,1-0.5c0.2-0.1,0.3-0.2,0.6-0.3c0.3-0.1,0.4-0.3,0.4-0.6
		c-0.1-0.3-0.3-0.4-0.6-0.4c-0.5,0.1-0.8,0.3-1,0.5c-0.2,0.1-0.3,0.2-0.6,0.3c-0.3,0.1-0.4,0-0.6,0c-0.2-0.1-0.6-0.1-1.1,0
		c-0.5,0.1-0.8,0.3-1,0.5c-0.2,0.1-0.3,0.2-0.6,0.3s-0.4,0-0.6,0c-0.2-0.1-0.6-0.1-1.1,0c-0.3,0.1-0.4,0.3-0.4,0.6
		c0.1,0.3,0.3,0.4,0.6,0.4C34.6,18.7,34.8,18.8,35,18.8z"/>
	<path class="st0" d="M41.8,19.4c-0.1-0.3-0.3-0.4-0.6-0.4c-0.5,0.1-0.8,0.3-1,0.5c-0.2,0.1-0.3,0.2-0.6,0.3c-0.3,0.1-0.4,0-0.6,0
		c-0.2-0.1-0.6-0.1-1.1,0c-0.5,0.1-0.8,0.3-1,0.5c-0.2,0.1-0.3,0.2-0.6,0.3c-0.3,0.1-0.4,0-0.6,0c-0.2-0.1-0.6-0.1-1.1,0
		c-0.3,0.1-0.4,0.3-0.4,0.6c0.1,0.3,0.3,0.4,0.6,0.4c0.3-0.1,0.4,0,0.6,0c0.2,0,0.3,0.1,0.6,0.1c0.1,0,0.3,0,0.5-0.1
		c0.5-0.1,0.8-0.3,1-0.5c0.2-0.1,0.3-0.2,0.6-0.3c0.3-0.1,0.4,0,0.6,0c0.2,0.1,0.6,0.1,1.1,0c0.5-0.1,0.8-0.3,1-0.5
		c0.2-0.1,0.3-0.2,0.6-0.3C41.7,19.9,41.8,19.6,41.8,19.4z"/>
</g>
</svg>
