<?xml version="1.0" encoding="utf-8"?>
<!-- Generator: Adobe Illustrator 22.0.1, SVG Export Plug-In . SVG Version: 6.00 Build 0)  -->
<svg version="1.1" id="Layer_1" xmlns="http://www.w3.org/2000/svg" xmlns:xlink="http://www.w3.org/1999/xlink" x="0px" y="0px"
	 viewBox="0 0 50 50" style="enable-background:new 0 0 50 50;" xml:space="preserve">
<metadata><?xpacket begin="﻿" id="W5M0MpCehiHzreSzNTczkc9d"?>
<x:xmpmeta xmlns:x="adobe:ns:meta/" x:xmptk="Adobe XMP Core 5.6-c143 79.161210, 2017/08/11-10:28:36        ">
   <rdf:RDF xmlns:rdf="http://www.w3.org/1999/02/22-rdf-syntax-ns#">
      <rdf:Description rdf:about=""/>
   </rdf:RDF>
</x:xmpmeta>
                                                                                                    
                                                                                                    
                                                                                                    
                                                                                                    
                                                                                                    
                                                                                                    
                                                                                                    
                                                                                                    
                                                                                                    
                                                                                                    
                                                                                                    
                                                                                                    
                                                                                                    
                                                                                                    
                                                                                                    
                                                                                                    
                                                                                                    
                                                                                                    
                                                                                                    
                                                                                                    
                           
<?xpacket end="w"?></metadata>
<style type="text/css">
	.st0{fill:#DCB38D;}
</style>
<path class="st0" d="M25,1c13.2,0,24,10.8,24,24S38.2,49,25,49S1,38.2,1,25S11.8,1,25,1 M25,0C11.2,0,0,11.2,0,25s11.2,25,25,25
	s25-11.2,25-25S38.8,0,25,0L25,0z"/>
<g>
	<path class="st0" d="M38.6,12.7C36.8,10.8,33,8.5,25,8.5c-7.8,0-11.5,2.1-13.3,3.9c-1.2,1.2-1.9,2.8-1.9,4.5V17
		c0,0.8,0.7,1.5,1.5,1.5h6.2c0.4,0,0.8-0.2,1.1-0.5c0.3-0.3,0.4-0.7,0.4-1.1l0-0.6c0-0.5,0.2-1,0.5-1.3c0.9-0.8,2.8-1.3,5.3-1.3
		c2.5,0,4.4,0.5,5.4,1.4c0.3,0.3,0.5,0.8,0.5,1.3l0,0.6c0,0.4,0.2,0.8,0.4,1.1s0.7,0.5,1.1,0.5h6.2c0.8,0,1.5-0.7,1.5-1.5v-0.1
		C40.2,15.3,39.6,13.8,38.6,12.7z M38.9,17c0,0.2-0.1,0.3-0.3,0.3h-6.2c-0.1,0-0.2-0.1-0.2-0.1s-0.1-0.1-0.1-0.2l0-0.6
		c0-0.9-0.3-1.7-0.9-2.2c-1.6-1.5-4.6-1.7-6.2-1.7c-2,0-4.7,0.3-6.2,1.6c-0.6,0.6-0.9,1.4-0.9,2.3l0,0.6c0,0.1-0.1,0.2-0.1,0.2
		c0,0-0.1,0.1-0.2,0.1h-6.2c-0.2,0-0.3-0.1-0.3-0.3v-0.1c0-1.4,0.5-2.7,1.5-3.6c1.6-1.6,5.1-3.5,12.4-3.5c7.6,0,11.1,2,12.7,3.7
		c0.8,0.9,1.3,2.1,1.3,3.4V17z"/>
	<path class="st0" d="M25,17.3c-6.7,0-12.1,5.4-12.1,12.1S18.3,41.5,25,41.5S37.1,36,37.1,29.4S31.7,17.3,25,17.3z M24.4,19.2v4.5
		c-1.3,0-2.5-0.3-3.7-0.6C21.6,21.4,22.9,20,24.4,19.2z M24.4,25v3.7h-5.1c0.1-1.6,0.4-3.1,0.9-4.5C21.5,24.7,22.9,24.9,24.4,25z
		 M24.4,30v3.7c-1.5,0.1-2.9,0.3-4.2,0.7c-0.5-1.4-0.9-2.9-0.9-4.5H24.4z M24.4,35v4.6c-1.5-0.9-2.8-2.3-3.7-4
		C21.9,35.2,23.1,35,24.4,35z M25.6,39.5V35c1.2,0.1,2.4,0.3,3.5,0.6C28.3,37.3,27.1,38.6,25.6,39.5z M25.6,33.7V30h5
		c-0.1,1.6-0.4,3.1-0.9,4.5C28.4,34,27,33.8,25.6,33.7z M25.6,28.7V25c1.4-0.1,2.8-0.3,4-0.7c0.5,1.4,0.9,2.9,0.9,4.5H25.6z
		 M25.6,23.7v-4.4c1.4,0.9,2.6,2.2,3.5,3.8C28,23.5,26.8,23.7,25.6,23.7z M27.1,18.8c2,0.4,3.8,1.4,5.3,2.7
		c-0.7,0.5-1.4,0.9-2.1,1.2C29.5,21.1,28.4,19.8,27.1,18.8z M19.5,22.7c-0.7-0.3-1.4-0.7-2-1.1c1.4-1.3,3.2-2.3,5.1-2.7
		C21.4,19.8,20.3,21.1,19.5,22.7z M19,23.8c-0.6,1.5-0.9,3.2-1,4.9h-3.8c0.1-2.4,1-4.5,2.5-6.2C17.4,23,18.2,23.5,19,23.8z M18,30
		c0.1,1.7,0.4,3.4,1,4.9c-0.9,0.4-1.6,0.8-2.4,1.4c-1.4-1.7-2.3-3.9-2.4-6.3H18z M19.5,36c0.8,1.6,1.9,2.9,3.1,3.9
		c-2-0.4-3.8-1.4-5.2-2.8C18.1,36.7,18.8,36.3,19.5,36z M30.3,36c0.8,0.3,1.5,0.7,2.1,1.2c-1.5,1.4-3.3,2.4-5.3,2.8
		C28.4,39,29.5,37.6,30.3,36z M30.8,34.9c0.6-1.5,0.9-3.2,1-4.9h4c-0.1,2.4-1,4.6-2.5,6.3C32.6,35.7,31.7,35.3,30.8,34.9z
		 M31.8,28.7c-0.1-1.7-0.4-3.4-1-4.9c0.9-0.4,1.7-0.9,2.5-1.4c1.4,1.7,2.4,3.9,2.5,6.3H31.8z"/>
</g>
</svg>
