<?xml version="1.0" encoding="utf-8"?>
<!-- Generator: Adobe Illustrator 22.0.1, SVG Export Plug-In . SVG Version: 6.00 Build 0)  -->
<svg version="1.1" id="Layer_1" xmlns="http://www.w3.org/2000/svg" xmlns:xlink="http://www.w3.org/1999/xlink" x="0px" y="0px"
	 viewBox="0 0 50 50" style="enable-background:new 0 0 50 50;" xml:space="preserve">
<metadata><?xpacket begin="﻿" id="W5M0MpCehiHzreSzNTczkc9d"?>
<x:xmpmeta xmlns:x="adobe:ns:meta/" x:xmptk="Adobe XMP Core 5.6-c143 79.161210, 2017/08/11-10:28:36        ">
   <rdf:RDF xmlns:rdf="http://www.w3.org/1999/02/22-rdf-syntax-ns#">
      <rdf:Description rdf:about=""/>
   </rdf:RDF>
</x:xmpmeta>
                                                                                                    
                                                                                                    
                                                                                                    
                                                                                                    
                                                                                                    
                                                                                                    
                                                                                                    
                                                                                                    
                                                                                                    
                                                                                                    
                                                                                                    
                                                                                                    
                                                                                                    
                                                                                                    
                                                                                                    
                                                                                                    
                                                                                                    
                                                                                                    
                                                                                                    
                                                                                                    
                           
<?xpacket end="w"?></metadata>
<style type="text/css">
	.st0{fill:#DCB38D;}
</style>
<path class="st0" d="M25,1c13.2,0,24,10.8,24,24S38.2,49,25,49S1,38.2,1,25S11.8,1,25,1 M25,0C11.2,0,0,11.2,0,25s11.2,25,25,25
	s25-11.2,25-25S38.8,0,25,0L25,0z"/>
<g>
	<path class="st0" d="M28.5,21.4l-4.1,0c0,0,0,0,0,0c-0.3,0-0.6,0.3-0.6,0.6c0,0.3,0.3,0.6,0.6,0.6l4.1,0c0,0,0,0,0,0
		c0.3,0,0.6-0.3,0.6-0.6C29.1,21.7,28.9,21.4,28.5,21.4z"/>
	<path class="st0" d="M15.3,32.8c-0.3-0.2-0.7-0.1-0.9,0.2l-1.1,1.8c-0.2,0.3-0.1,0.7,0.2,0.9c0.1,0.1,0.2,0.1,0.3,0.1
		c0.2,0,0.4-0.1,0.5-0.3l1.1-1.8C15.7,33.4,15.6,33,15.3,32.8z"/>
	<path class="st0" d="M18.2,33c-0.2-0.3-0.6-0.4-0.9-0.2c-0.3,0.2-0.4,0.6-0.2,0.9l1.1,1.8c0.1,0.2,0.3,0.3,0.5,0.3
		c0.1,0,0.2,0,0.3-0.1c0.3-0.2,0.4-0.6,0.2-0.9L18.2,33z"/>
	<path class="st0" d="M16.3,32.8c-0.3,0-0.6,0.3-0.6,0.6v1.9c0,0.3,0.3,0.6,0.6,0.6s0.6-0.3,0.6-0.6v-1.9
		C16.9,33.1,16.7,32.8,16.3,32.8z"/>
	<path class="st0" d="M28.4,32.8c-0.3-0.2-0.7-0.1-0.9,0.2l-1.1,1.8c-0.2,0.3-0.1,0.7,0.2,0.9c0.1,0.1,0.2,0.1,0.3,0.1
		c0.2,0,0.4-0.1,0.5-0.3l1.1-1.8C28.8,33.4,28.7,33,28.4,32.8z"/>
	<path class="st0" d="M31.3,33c-0.2-0.3-0.6-0.4-0.9-0.2c-0.3,0.2-0.4,0.6-0.2,0.9l1.1,1.8c0.1,0.2,0.3,0.3,0.5,0.3
		c0.1,0,0.2,0,0.3-0.1c0.3-0.2,0.4-0.6,0.2-0.9L31.3,33z"/>
	<path class="st0" d="M29.4,32.8c-0.3,0-0.6,0.3-0.6,0.6v1.9c0,0.3,0.3,0.6,0.6,0.6s0.6-0.3,0.6-0.6v-1.9
		C30,33.1,29.8,32.8,29.4,32.8z"/>
	<path class="st0" d="M31.5,18.2c-1.1-0.6-2.4-0.8-3.8-0.8c-4.2,0.1-8.7,0.9-10.6,5.8l-0.3,0.8h0.9c4.6,0,11.2-0.1,14.3-0.3
		c1.2-0.1,2.1-1,2.1-2.1C34.1,20.3,33.2,19,31.5,18.2z M31.9,22.5c-2.9,0.2-8.8,0.3-13.3,0.3c1.8-3.5,5.4-4.1,9.1-4.2
		c0.1,0,0.1,0,0.2,0c1.1,0,2.1,0.2,3,0.7c1.3,0.6,2,1.5,2,2.4C32.9,22.1,32.4,22.5,31.9,22.5z"/>
	<path class="st0" d="M41.1,14.7c0-0.3-0.2-0.7-0.5-0.7c-0.3,0-0.7,0.2-0.7,0.5c-0.4,3.1-2.5,3.6-3.2,3.7c-0.4-0.8-1-1.5-1.8-2
		c-1.4-0.9-5.9-2.3-10.8-1.1c-4.5,1.1-8.2,4-10.9,8.5c-0.1,0.1-0.1,0.2-0.2,0.3c-0.1,0.3-0.2,0.5-0.9,0.8l-0.2,0.1L11.8,25
		c-0.5,0.8-0.6,1.7-0.7,2.2c-0.2,0.1-0.4,0.2-0.5,0.4l-1.5,1.9c-0.3,0.4-0.4,1-0.2,1.5c0.2,0.5,0.7,0.8,1.3,0.8H35
		c0.5,0,0.9-0.2,1.2-0.6c0.3-0.4,0.3-0.9,0.2-1.3L35.6,28c0-0.1-0.1-0.2-0.2-0.3c1.1-0.9,1.8-2.5,2-4.5c0.1-1.2,0-2.5-0.4-3.8
		C38.4,19.2,40.6,18.2,41.1,14.7z M35.2,30.5c0,0-0.1,0.1-0.1,0.1H10.3c-0.1,0-0.1-0.1-0.2-0.1s0-0.1,0-0.2l1.5-1.9
		c0,0,0.1-0.1,0.1-0.1h22.5c0.1,0,0.1,0,0.2,0.1l0.7,1.9C35.2,30.4,35.2,30.5,35.2,30.5z M36.3,23.1c-0.2,2-1,3.5-2.1,4H12.4
		c0-0.3,0.1-0.8,0.4-1.3c0.8-0.5,1-0.9,1.2-1.3c0-0.1,0.1-0.1,0.1-0.2c2.5-4.3,5.9-6.9,10.1-7.9c4.5-1.1,8.7,0.2,9.9,0.9
		C35.9,18.4,36.5,21,36.3,23.1z"/>
</g>
</svg>
