<?xml version="1.0" encoding="utf-8"?>
<!-- Generator: Adobe Illustrator 22.0.1, SVG Export Plug-In . SVG Version: 6.00 Build 0)  -->
<svg version="1.1" id="Layer_1" xmlns="http://www.w3.org/2000/svg" xmlns:xlink="http://www.w3.org/1999/xlink" x="0px" y="0px"
	 viewBox="0 0 50 50" style="enable-background:new 0 0 50 50;" xml:space="preserve">
<metadata><?xpacket begin="﻿" id="W5M0MpCehiHzreSzNTczkc9d"?>
<x:xmpmeta xmlns:x="adobe:ns:meta/" x:xmptk="Adobe XMP Core 5.6-c143 79.161210, 2017/08/11-10:28:36        ">
   <rdf:RDF xmlns:rdf="http://www.w3.org/1999/02/22-rdf-syntax-ns#">
      <rdf:Description rdf:about=""/>
   </rdf:RDF>
</x:xmpmeta>
                                                                                                    
                                                                                                    
                                                                                                    
                                                                                                    
                                                                                                    
                                                                                                    
                                                                                                    
                                                                                                    
                                                                                                    
                                                                                                    
                                                                                                    
                                                                                                    
                                                                                                    
                                                                                                    
                                                                                                    
                                                                                                    
                                                                                                    
                                                                                                    
                                                                                                    
                                                                                                    
                           
<?xpacket end="w"?></metadata>
<style type="text/css">
	.st0{fill:#DCB38D;}
</style>
<path class="st0" d="M25,1c13.2,0,24,10.8,24,24S38.2,49,25,49S1,38.2,1,25S11.8,1,25,1 M25,0C11.2,0,0,11.2,0,25s11.2,25,25,25
	s25-11.2,25-25S38.8,0,25,0L25,0z"/>
<g>
	<path class="st0" d="M35.5,11h-21c-0.8,0-1.5,0.7-1.5,1.5v25.1c0,0.8,0.7,1.5,1.5,1.5h21c0.8,0,1.5-0.7,1.5-1.5V12.5
		C37,11.6,36.3,11,35.5,11z M35.7,12.5v4.8H21.3v-5h14.2C35.6,12.2,35.7,12.3,35.7,12.5z M14.5,12.2H20v5h-5.8v-4.8
		C14.3,12.3,14.4,12.2,14.5,12.2z M35.5,37.8h-21c-0.1,0-0.3-0.1-0.3-0.3v-19h21.5v16h-2.6c-0.3,0-0.6,0.3-0.6,0.6s0.3,0.6,0.6,0.6
		h2.6v1.8C35.7,37.7,35.6,37.8,35.5,37.8z"/>
	<path class="st0" d="M15.3,16.1H19c0.3,0,0.6-0.3,0.6-0.6s-0.3-0.6-0.6-0.6h-3.6c-0.3,0-0.6,0.3-0.6,0.6S15,16.1,15.3,16.1z"/>
	<path class="st0" d="M25,22.3c-3.1,0-5.5,2.5-5.5,5.5s2.5,5.5,5.5,5.5s5.5-2.5,5.5-5.5S28.1,22.3,25,22.3z M28.9,28.6l0-1.5
		c0.1-0.1,0.2-0.1,0.3-0.2c0.1,0.3,0.1,0.6,0.1,1c0,0.3,0,0.7-0.1,1C29.1,28.7,29,28.6,28.9,28.6z M25,32.2c-2.4,0-4.3-1.9-4.3-4.3
		s1.9-4.3,4.3-4.3c1.5,0,2.8,0.8,3.6,2c0,0.2-0.2,0.3-0.4,0.5c-0.4,0.2-0.6,0.7-0.6,1.1v1.4c0,0.5,0.2,0.9,0.6,1.1
		c0.2,0.1,0.4,0.3,0.4,0.5C27.8,31.4,26.5,32.2,25,32.2z"/>
	<path class="st0" d="M25,20.2c-4.2,0-7.6,3.4-7.6,7.6s3.4,7.6,7.6,7.6c4.2,0,7.6-3.4,7.6-7.6S29.2,20.2,25,20.2z M25,34.2
		c-3.5,0-6.4-2.9-6.4-6.4c0-3.5,2.9-6.4,6.4-6.4s6.4,2.9,6.4,6.4C31.4,31.4,28.5,34.2,25,34.2z"/>
	<path class="st0" d="M30,16.4h3.5c0.7,0,1.3-0.6,1.3-1.3v-0.8c0-0.7-0.6-1.3-1.3-1.3H30c-0.7,0-1.3,0.6-1.3,1.3v0.8
		C28.7,15.8,29.3,16.4,30,16.4z M29.9,14.3C29.9,14.3,29.9,14.3,29.9,14.3l3.6-0.1c0.1,0,0.1,0,0.1,0.1v0.8c0,0.1,0,0.1-0.1,0.1H30
		c-0.1,0-0.1,0-0.1-0.1V14.3z"/>
	<path class="st0" d="M26.3,16.4c0.9,0,1.7-0.8,1.7-1.7S27.3,13,26.3,13s-1.7,0.8-1.7,1.7S25.4,16.4,26.3,16.4z M26.3,14.3
		c0.3,0,0.5,0.2,0.5,0.5s-0.2,0.5-0.5,0.5s-0.5-0.2-0.5-0.5S26.1,14.3,26.3,14.3z"/>
</g>
</svg>
