<?xml version="1.0" encoding="utf-8"?>
<!-- Generator: Adobe Illustrator 22.0.1, SVG Export Plug-In . SVG Version: 6.00 Build 0)  -->
<svg version="1.1" id="Layer_1" xmlns="http://www.w3.org/2000/svg" xmlns:xlink="http://www.w3.org/1999/xlink" x="0px" y="0px"
	 viewBox="0 0 50 50" style="enable-background:new 0 0 50 50;" xml:space="preserve">
<metadata><?xpacket begin="﻿" id="W5M0MpCehiHzreSzNTczkc9d"?>
<x:xmpmeta xmlns:x="adobe:ns:meta/" x:xmptk="Adobe XMP Core 5.6-c143 79.161210, 2017/08/11-10:28:36        ">
   <rdf:RDF xmlns:rdf="http://www.w3.org/1999/02/22-rdf-syntax-ns#">
      <rdf:Description rdf:about=""/>
   </rdf:RDF>
</x:xmpmeta>
                                                                                                    
                                                                                                    
                                                                                                    
                                                                                                    
                                                                                                    
                                                                                                    
                                                                                                    
                                                                                                    
                                                                                                    
                                                                                                    
                                                                                                    
                                                                                                    
                                                                                                    
                                                                                                    
                                                                                                    
                                                                                                    
                                                                                                    
                                                                                                    
                                                                                                    
                                                                                                    
                           
<?xpacket end="w"?></metadata>
<style type="text/css">
	.st0{fill:#DCB38D;}
</style>
<path class="st0" d="M25,1c13.2,0,24,10.8,24,24S38.2,49,25,49S1,38.2,1,25S11.8,1,25,1 M25,0C11.2,0,0,11.2,0,25s11.2,25,25,25
	s25-11.2,25-25S38.8,0,25,0L25,0z"/>
<path class="st0" d="M39.6,20.5h-3.5v-3.7c0-0.3-0.3-0.6-0.6-0.6h-21c-0.3,0-0.6,0.3-0.6,0.6v3.7h-3.5c-0.3,0-0.6,0.3-0.6,0.6v10.1
	c0,0.3,0.3,0.6,0.6,0.6h2.9l-0.7,1c-0.2,0.3-0.1,0.7,0.1,0.9c0.1,0.1,0.2,0.1,0.4,0.1c0.2,0,0.4-0.1,0.5-0.3l1.2-1.7h20.4l1.2,1.7
	c0.1,0.2,0.3,0.3,0.5,0.3c0.1,0,0.3,0,0.4-0.1c0.3-0.2,0.3-0.6,0.1-0.9l-0.7-1h2.9c0.3,0,0.6-0.3,0.6-0.6V21.1
	C40.2,20.7,40,20.5,39.6,20.5z M15.1,26.8v-1.3h9.3v1.3H15.1z M25.6,25.5h9.3v1.3h-9.3V25.5z M34.9,21.1v3.1h-9.3v-6.8h9.3V21.1z
	 M15.1,17.4h9.3v6.8h-9.3v-3.1V17.4z M39,30.6H11v-8.9h2.8v3.1v2.6c0,0.3,0.3,0.6,0.6,0.6h21c0.3,0,0.6-0.3,0.6-0.6v-2.6v-3.1H39
	V30.6z"/>
</svg>
