<?xml version="1.0" encoding="utf-8"?>
<!-- Generator: Adobe Illustrator 22.0.1, SVG Export Plug-In . SVG Version: 6.00 Build 0)  -->
<svg version="1.1" id="Layer_1" xmlns="http://www.w3.org/2000/svg" xmlns:xlink="http://www.w3.org/1999/xlink" x="0px" y="0px"
	 viewBox="0 0 50 50" style="enable-background:new 0 0 50 50;" xml:space="preserve">
<metadata><?xpacket begin="﻿" id="W5M0MpCehiHzreSzNTczkc9d"?>
<x:xmpmeta xmlns:x="adobe:ns:meta/" x:xmptk="Adobe XMP Core 5.6-c143 79.161210, 2017/08/11-10:28:36        ">
   <rdf:RDF xmlns:rdf="http://www.w3.org/1999/02/22-rdf-syntax-ns#">
      <rdf:Description rdf:about=""/>
   </rdf:RDF>
</x:xmpmeta>
                                                                                                    
                                                                                                    
                                                                                                    
                                                                                                    
                                                                                                    
                                                                                                    
                                                                                                    
                                                                                                    
                                                                                                    
                                                                                                    
                                                                                                    
                                                                                                    
                                                                                                    
                                                                                                    
                                                                                                    
                                                                                                    
                                                                                                    
                                                                                                    
                                                                                                    
                                                                                                    
                           
<?xpacket end="w"?></metadata>
<style type="text/css">
	.st0{fill:#DCB38D;}
</style>
<path class="st0" d="M25,1c13.2,0,24,10.8,24,24S38.2,49,25,49S1,38.2,1,25S11.8,1,25,1 M25,0C11.2,0,0,11.2,0,25s11.2,25,25,25
	s25-11.2,25-25S38.8,0,25,0L25,0z"/>
<g>
	<path class="st0" d="M30.8,13.2c-2.2,1.2-1.9,4.2-1.9,4.2c0,2.7,2,3.3,2.1,3.4c0.1,0,0.1,0,0.2,0c0.1,0,0.3,0,0.4-0.1
		c0.2-0.1,0.2-0.3,0.2-0.5v-6.4c0-0.2-0.1-0.4-0.3-0.5C31.3,13.1,31,13.1,30.8,13.2z M30.5,18.8c-0.2-0.3-0.4-0.8-0.4-1.5
		c0,0-0.1-1.1,0.4-2.1V18.8z"/>
	<path class="st0" d="M36,10.8l-7.6-2.5c-0.1,0-0.1,0-0.2,0v0h-2.3c-0.8,0-1.5,0.7-1.5,1.5V11h-9.9c-0.8,0-1.5,0.7-1.5,1.5v25.1
		c0,0.8,0.7,1.5,1.5,1.5h9.9v1.3c0,0.8,0.7,1.5,1.5,1.5h2.3v0c0.1,0,0.1,0,0.2,0l7.6-2.5h0c0.6-0.2,1-0.8,1-1.4V12.2
		C37,11.6,36.6,11,36,10.8z M19.9,35.1v-2.4c0-0.4-0.1-0.8-0.3-1.1c-0.4-0.7-0.6-1.6-0.6-2.6v-0.3c0-0.3-0.3-0.6-0.6-0.6h-1.7
		c0.1-1.8,0.4-3.5,0.7-4.6c0.1-0.1,0.6-0.3,1.3,0c0.6,0.3,1.4,0.4,2.1,0.4c0.4,0,0.7,0,1.1-0.1c0.4,1.3,0.6,3.1,0.7,5h-1.1
		c-0.3,0-0.5,0.2-0.5,0.5c0,0.2,0.1,0.3,0.2,0.4c-0.1,0.2-0.1,0.3-0.1,0.5v5H19.9z M19.3,16.3c0-0.1,0-0.1,0-0.1h0.8
		c0,0,0,0.1,0,0.1c0,0.1-0.3,3.5,1.4,6.2c0,0,0,0.1,0,0.1c-0.6,0.1-1.5,0.1-2.2-0.2c-0.4-0.2-0.7-0.3-1.1-0.3
		C19.6,19.5,19.3,16.4,19.3,16.3z M16,32.8c0-0.2,0-0.4,0.1-0.5c0.4-0.8,0.7-1.8,0.7-2.9h0.9c0,1.1,0.3,2.1,0.7,2.9
		c0.1,0.2,0.1,0.4,0.1,0.5v2.7c0,0.4-0.3,0.6-0.6,0.6h-1.4c-0.4,0-0.6-0.3-0.6-0.6V32.8z M22.2,30.2c0-0.1,0.1-0.2,0.2-0.2h2v6.3h-2
		c-0.1,0-0.2-0.1-0.2-0.2V30.2z M14.5,37.8c-0.1,0-0.3-0.1-0.3-0.3V12.5c0-0.1,0.1-0.3,0.3-0.3h9.9v16.5h-0.5c-0.1-2-0.3-4.4-0.9-6
		c0,0,0,0,0-0.1c-0.1-0.3-0.3-0.6-0.4-0.9c-0.8-1.3-1.1-2.9-1.2-4c0,0,0,0,0.1,0c0.3,0,0.6-0.3,0.6-0.6v-0.6c0-0.9-0.7-1.7-1.7-1.7
		H19c-0.9,0-1.7,0.8-1.7,1.7v0.6c0,0.3,0.3,0.6,0.6,0.6c0,0,0,0,0.1,0c-0.1,1.1-0.3,2.7-1.2,4c-0.2,0.3-0.4,0.7-0.5,1.1c0,0,0,0,0,0
		c0,0,0,0,0,0c-0.5,1.3-0.8,3.2-0.9,5.3c0,0.7,0,1.5,0,2.2c0,0,0,0,0,0c-0.1,0.4-0.2,0.8-0.4,1.2c-0.2,0.3-0.3,0.7-0.3,1.1v2.7
		c0,1,0.8,1.9,1.9,1.9h1.4c0.7,0,1.3-0.4,1.7-1h1.5c0.2,0.5,0.6,0.9,1.2,0.9h2v0.5H14.5z M25.6,40.3V9.7c0-0.1,0.1-0.3,0.3-0.3h0.6
		c0,0.1,0,0.2,0,0.3v30.6c0,0.1,0,0.2,0,0.3h-0.6C25.7,40.6,25.6,40.4,25.6,40.3z M35.7,37.8c0,0.1-0.1,0.2-0.2,0.2L28,40.5
		c-0.1,0-0.2,0-0.2,0c0,0-0.1-0.1-0.1-0.2V9.7c0-0.1,0.1-0.2,0.1-0.2c0,0,0.1,0,0.1,0c0,0,0.1,0,0.1,0l7.6,2.5
		c0.1,0,0.2,0.1,0.2,0.2V37.8z"/>
	<path class="st0" d="M30.9,37.3l-1.6,0.6c-0.3,0.1-0.5,0.5-0.4,0.8c0.1,0.3,0.3,0.4,0.6,0.4c0.1,0,0.1,0,0.2,0l1.6-0.6
		c0.3-0.1,0.5-0.5,0.4-0.8C31.6,37.3,31.2,37.1,30.9,37.3z"/>
</g>
</svg>
