<?xml version="1.0" encoding="utf-8"?>
<!-- Generator: Adobe Illustrator 22.0.1, SVG Export Plug-In . SVG Version: 6.00 Build 0)  -->
<svg version="1.1" id="Layer_1" xmlns="http://www.w3.org/2000/svg" xmlns:xlink="http://www.w3.org/1999/xlink" x="0px" y="0px"
	 viewBox="0 0 50 50" style="enable-background:new 0 0 50 50;" xml:space="preserve">
<metadata><?xpacket begin="﻿" id="W5M0MpCehiHzreSzNTczkc9d"?>
<x:xmpmeta xmlns:x="adobe:ns:meta/" x:xmptk="Adobe XMP Core 5.6-c143 79.161210, 2017/08/11-10:28:36        ">
   <rdf:RDF xmlns:rdf="http://www.w3.org/1999/02/22-rdf-syntax-ns#">
      <rdf:Description rdf:about=""/>
   </rdf:RDF>
</x:xmpmeta>
                                                                                                    
                                                                                                    
                                                                                                    
                                                                                                    
                                                                                                    
                                                                                                    
                                                                                                    
                                                                                                    
                                                                                                    
                                                                                                    
                                                                                                    
                                                                                                    
                                                                                                    
                                                                                                    
                                                                                                    
                                                                                                    
                                                                                                    
                                                                                                    
                                                                                                    
                                                                                                    
                           
<?xpacket end="w"?></metadata>
<style type="text/css">
	.st0{fill:#DCB38D;}
</style>
<path class="st0" d="M25,1c13.2,0,24,10.8,24,24S38.2,49,25,49S1,38.2,1,25S11.8,1,25,1 M25,0C11.2,0,0,11.2,0,25s11.2,25,25,25
	s25-11.2,25-25S38.8,0,25,0L25,0z"/>
<g>
	<path class="st0" d="M38.7,28.3c0-7-5.3-12.8-12.1-13.6c0.1-0.2,0.1-0.4,0.1-0.6c0-0.9-0.8-1.7-1.7-1.7c-0.9,0-1.7,0.8-1.7,1.7
		c0,0.2,0,0.4,0.1,0.6c-6.8,0.8-12.1,6.6-12.1,13.6v0.7h27.4V28.3z M24.5,14.2c0-0.2,0.2-0.5,0.5-0.5c0.2,0,0.5,0.2,0.5,0.5
		c0,0.2-0.2,0.5-0.5,0.5C24.8,14.6,24.5,14.4,24.5,14.2z M12.6,27.8c0.3-6.6,5.7-11.9,12.4-11.9c6.7,0,12.2,5.3,12.4,11.9H12.6z"/>
	<path class="st0" d="M41.8,30.7H8.2c-0.3,0-0.6,0.3-0.6,0.6s0.3,0.6,0.6,0.6h33.6c0.3,0,0.6-0.3,0.6-0.6S42.1,30.7,41.8,30.7z"/>
	<path class="st0" d="M29.8,17.9c-0.3-0.2-0.7-0.1-0.9,0.2c-0.2,0.3-0.1,0.7,0.2,0.9c0,0,3,2.1,3,5.9c0,0.3,0.3,0.6,0.6,0.6
		s0.6-0.3,0.6-0.6C33.3,20.5,29.9,18,29.8,17.9z"/>
</g>
</svg>
