<?xml version="1.0" encoding="utf-8"?>
<!-- Generator: Adobe Illustrator 22.0.1, SVG Export Plug-In . SVG Version: 6.00 Build 0)  -->
<svg version="1.1" id="Layer_1" xmlns="http://www.w3.org/2000/svg" xmlns:xlink="http://www.w3.org/1999/xlink" x="0px" y="0px"
	 viewBox="0 0 50 50" style="enable-background:new 0 0 50 50;" xml:space="preserve">
<metadata><?xpacket begin="﻿" id="W5M0MpCehiHzreSzNTczkc9d"?>
<x:xmpmeta xmlns:x="adobe:ns:meta/" x:xmptk="Adobe XMP Core 5.6-c143 79.161210, 2017/08/11-10:28:36        ">
   <rdf:RDF xmlns:rdf="http://www.w3.org/1999/02/22-rdf-syntax-ns#">
      <rdf:Description rdf:about=""/>
   </rdf:RDF>
</x:xmpmeta>
                                                                                                    
                                                                                                    
                                                                                                    
                                                                                                    
                                                                                                    
                                                                                                    
                                                                                                    
                                                                                                    
                                                                                                    
                                                                                                    
                                                                                                    
                                                                                                    
                                                                                                    
                                                                                                    
                                                                                                    
                                                                                                    
                                                                                                    
                                                                                                    
                                                                                                    
                                                                                                    
                           
<?xpacket end="w"?></metadata>
<style type="text/css">
	.st0{fill:#DCB38D;}
</style>
<path class="st0" d="M25,1c13.2,0,24,10.8,24,24S38.2,49,25,49S1,38.2,1,25S11.8,1,25,1 M25,0C11.2,0,0,11.2,0,25s11.2,25,25,25
	s25-11.2,25-25S38.8,0,25,0L25,0z"/>
<g>
	<path class="st0" d="M17,34.4h-2.8c-0.3,0-0.6,0.3-0.6,0.6s0.3,0.6,0.6,0.6H17c0.3,0,0.6-0.3,0.6-0.6S17.4,34.4,17,34.4z"/>
	<path class="st0" d="M38,34.4h-2.8c-0.3,0-0.6,0.3-0.6,0.6s0.3,0.6,0.6,0.6H38c0.3,0,0.6-0.3,0.6-0.6S38.4,34.4,38,34.4z"/>
	<path class="st0" d="M22.4,19.3h-6.5c-0.6,0-1.1,0.5-1.1,1.1v6.4c0,0.6,0.5,1.1,1.1,1.1h6.5c0.6,0,1.1-0.5,1.1-1.1v-6.4
		C23.5,19.8,23,19.3,22.4,19.3z M22.2,23h-2.4v-2.4h2.4V23z M18.5,20.6V23h-2.4v-2.4H18.5z M16.1,24.2h2.4v2.4h-2.4V24.2z
		 M19.8,26.6v-2.4h2.4v2.4H19.8z"/>
	<path class="st0" d="M40.5,14.4H11c-0.7,0-1.4,0.6-1.4,1.4v1.9h0c-0.8,0-1.5,0.7-1.5,1.5v1.4c0,0.8,0.7,1.5,1.5,1.5h0v3.6h0
		c-0.8,0-1.5,0.7-1.5,1.5v1.4c0,0.8,0.7,1.5,1.5,1.5h0v1.7c0,0.7,0.6,1.4,1.4,1.4h29.4c0.7,0,1.4-0.6,1.4-1.4v-16
		C41.8,15,41.2,14.4,40.5,14.4z M9.7,20.8c-0.1,0-0.3-0.1-0.3-0.3v-1.4c0-0.1,0.1-0.3,0.3-0.3h0L9.7,20.8L9.7,20.8z M9.7,28.8
		c-0.1,0-0.3-0.1-0.3-0.3v-1.4c0-0.1,0.1-0.3,0.3-0.3h0L9.7,28.8L9.7,28.8z M40.6,31.8c0,0.1,0,0.1-0.1,0.1H11c-0.1,0-0.1,0-0.1-0.1
		v-16c0-0.1,0-0.1,0.1-0.1h29.4c0.1,0,0.1,0,0.1,0.1V31.8z"/>
	<path class="st0" d="M35.4,24.6l-6.2,1c-0.4,0.1-0.8,0.5-0.8,0.9c0,0.4,0.3,0.8,0.8,0.9l6.1,1l0.1,0c1.1,0,1.9-0.9,1.9-1.9
		S36.5,24.6,35.4,24.6z M35.5,27.2l-4-0.7l4-0.7c0.4,0,0.6,0.3,0.6,0.7C36.1,26.9,35.8,27.2,35.5,27.2z"/>
	<path class="st0" d="M29.1,20.6h4.6c0.3,0,0.6-0.3,0.6-0.6s-0.3-0.6-0.6-0.6h-4.6c-0.3,0-0.6,0.3-0.6,0.6S28.8,20.6,29.1,20.6z"/>
</g>
</svg>
