<?xml version="1.0" encoding="utf-8"?>
<!-- Generator: Adobe Illustrator 22.0.1, SVG Export Plug-In . SVG Version: 6.00 Build 0)  -->
<svg version="1.1" id="Layer_1" xmlns="http://www.w3.org/2000/svg" xmlns:xlink="http://www.w3.org/1999/xlink" x="0px" y="0px"
	 viewBox="0 0 50 50" style="enable-background:new 0 0 50 50;" xml:space="preserve">
<metadata><?xpacket begin="﻿" id="W5M0MpCehiHzreSzNTczkc9d"?>
<x:xmpmeta xmlns:x="adobe:ns:meta/" x:xmptk="Adobe XMP Core 5.6-c143 79.161210, 2017/08/11-10:28:36        ">
   <rdf:RDF xmlns:rdf="http://www.w3.org/1999/02/22-rdf-syntax-ns#">
      <rdf:Description rdf:about=""/>
   </rdf:RDF>
</x:xmpmeta>
                                                                                                    
                                                                                                    
                                                                                                    
                                                                                                    
                                                                                                    
                                                                                                    
                                                                                                    
                                                                                                    
                                                                                                    
                                                                                                    
                                                                                                    
                                                                                                    
                                                                                                    
                                                                                                    
                                                                                                    
                                                                                                    
                                                                                                    
                                                                                                    
                                                                                                    
                                                                                                    
                           
<?xpacket end="w"?></metadata>
<style type="text/css">
	.st0{fill:#DCB38D;}
</style>
<path class="st0" d="M25,1c13.2,0,24,10.8,24,24S38.2,49,25,49S1,38.2,1,25S11.8,1,25,1 M25,0C11.2,0,0,11.2,0,25s11.2,25,25,25
	s25-11.2,25-25S38.8,0,25,0L25,0z"/>
<g>
	<path class="st0" d="M35.8,13H14.2c-0.7,0-1.3,0.6-1.3,1.3v21.6c0,0.7,0.6,1.3,1.3,1.3h21.5c0.7,0,1.3-0.6,1.3-1.3V14.2
		C37,13.5,36.4,13,35.8,13z M36,35.8c0,0.1-0.1,0.3-0.3,0.3H14.2c-0.1,0-0.3-0.1-0.3-0.3V14.2c0-0.1,0.1-0.3,0.3-0.3h21.5
		c0.1,0,0.3,0.1,0.3,0.3V35.8z"/>
	<path class="st0" d="M25,15.6c-3,0-5.7,1.1-7.1,2.9l-0.2,0.3l2.1,3c0.4,0.6,1.1,1,1.8,1h1.8h3.1h1.8c0.7,0,1.4-0.4,1.8-1l2.1-3
		l-0.2-0.3C30.7,16.7,28,15.6,25,15.6z M24.8,21.8l0.2-0.6l0.2,0.6H24.8z M29.4,21.2c-0.2,0.3-0.6,0.5-1,0.5h-2.2L25,17.9l-1.2,3.9
		h-2.2c-0.4,0-0.8-0.2-1-0.5l-1.7-2.4c1.3-1.4,3.6-2.2,6.1-2.2c2.5,0,4.8,0.9,6.1,2.2L29.4,21.2z"/>
	<path class="st0" d="M20.1,18.5c-0.1,0-0.2,0.1-0.2,0.2c0,0.1,0.1,0.2,0.2,0.2s0.2-0.1,0.2-0.2C20.3,18.6,20.2,18.5,20.1,18.5z"/>
	<path class="st0" d="M21.1,18C21,18,21,18,21,18.1c0,0.1,0.1,0.2,0.2,0.2s0.2-0.1,0.2-0.2C21.3,18,21.3,18,21.1,18z"/>
	<path class="st0" d="M22.2,17.6c-0.1,0-0.2,0.1-0.2,0.2c0,0.1,0.1,0.2,0.2,0.2s0.2-0.1,0.2-0.2C22.4,17.7,22.3,17.6,22.2,17.6z"/>
	<path class="st0" d="M23.3,17.3c-0.1,0-0.2,0.1-0.2,0.2c0,0.1,0.1,0.2,0.2,0.2s0.2-0.1,0.2-0.2C23.5,17.4,23.5,17.3,23.3,17.3z"/>
	<path class="st0" d="M24.5,17.1c-0.1,0-0.2,0.1-0.2,0.2s0.1,0.2,0.2,0.2s0.2-0.1,0.2-0.2S24.6,17.1,24.5,17.1z"/>
	<path class="st0" d="M25.8,17.5c0.1,0,0.2-0.1,0.2-0.2s-0.1-0.2-0.2-0.2s-0.2,0.1-0.2,0.2S25.6,17.5,25.8,17.5z"/>
	<path class="st0" d="M26.9,17.7c0.1,0,0.2-0.1,0.2-0.2c0-0.1-0.1-0.2-0.2-0.2s-0.2,0.1-0.2,0.2C26.8,17.6,26.8,17.7,26.9,17.7z"/>
	<path class="st0" d="M28.2,18.1c0.1,0,0.2-0.1,0.2-0.2c0-0.1-0.1-0.2-0.2-0.2S28,17.8,28,17.9C28,18,28.1,18.1,28.2,18.1z"/>
	<path class="st0" d="M29.3,18.5c0.1,0,0.2-0.1,0.2-0.2s-0.1-0.2-0.2-0.2s-0.2,0.1-0.2,0.2S29.2,18.5,29.3,18.5z"/>
	<path class="st0" d="M30.3,19.1c0.1,0,0.2-0.1,0.2-0.2s-0.1-0.2-0.2-0.2s-0.2,0.1-0.2,0.2S30.2,19.1,30.3,19.1z"/>
	<path class="st0" d="M27.6,33.7h-4.8c-0.3,0-0.5,0.2-0.5,0.5s0.2,0.5,0.5,0.5h4.8c0.3,0,0.5-0.2,0.5-0.5S27.9,33.7,27.6,33.7z"/>
</g>
</svg>
