<?xml version="1.0" encoding="utf-8"?>
<!-- Generator: Adobe Illustrator 22.0.1, SVG Export Plug-In . SVG Version: 6.00 Build 0)  -->
<svg version="1.1" id="Layer_1" xmlns="http://www.w3.org/2000/svg" xmlns:xlink="http://www.w3.org/1999/xlink" x="0px" y="0px"
	 viewBox="0 0 50 50" style="enable-background:new 0 0 50 50;" xml:space="preserve">
<metadata><?xpacket begin="﻿" id="W5M0MpCehiHzreSzNTczkc9d"?>
<x:xmpmeta xmlns:x="adobe:ns:meta/" x:xmptk="Adobe XMP Core 5.6-c143 79.161210, 2017/08/11-10:28:36        ">
   <rdf:RDF xmlns:rdf="http://www.w3.org/1999/02/22-rdf-syntax-ns#">
      <rdf:Description rdf:about=""/>
   </rdf:RDF>
</x:xmpmeta>
                                                                                                    
                                                                                                    
                                                                                                    
                                                                                                    
                                                                                                    
                                                                                                    
                                                                                                    
                                                                                                    
                                                                                                    
                                                                                                    
                                                                                                    
                                                                                                    
                                                                                                    
                                                                                                    
                                                                                                    
                                                                                                    
                                                                                                    
                                                                                                    
                                                                                                    
                                                                                                    
                           
<?xpacket end="w"?></metadata>
<style type="text/css">
	.st0{fill:#DCB38D;}
</style>
<path class="st0" d="M25,1c13.2,0,24,10.8,24,24S38.2,49,25,49S1,38.2,1,25S11.8,1,25,1 M25,0C11.2,0,0,11.2,0,25s11.2,25,25,25
	s25-11.2,25-25S38.8,0,25,0L25,0z"/>
<g>
	<path class="st0" d="M32.7,14.7h-4.8V7.9c0-0.3-0.3-0.6-0.6-0.6s-0.6,0.3-0.6,0.6v6.8h-2.9v-5c0-0.3-0.3-0.6-0.6-0.6
		s-0.6,0.3-0.6,0.6v5h-5.2c-2.2,0-4.1,1.4-4.7,3.4c0,0.1-0.1,0.2-0.1,0.3c-0.1,0.4-0.2,0.9-0.2,1.3c0,0.8,0.7,1.5,1.5,1.5h22.5
		c0.8,0,1.5-0.7,1.5-1.5C37.7,16.9,35.5,14.7,32.7,14.7z M36.2,19.9H13.8c-0.1,0-0.3-0.1-0.3-0.3c0-0.2,0-0.4,0.1-0.7h16.7
		c0.3,0,0.6-0.3,0.6-0.6s-0.3-0.6-0.6-0.6H14.1c0.7-1.1,1.8-1.8,3.2-1.8h15.5c2.1,0,3.8,1.7,3.8,3.8C36.5,19.8,36.4,19.9,36.2,19.9z
		"/>
	<path class="st0" d="M16.5,23.2c-0.3,0-0.6,0.3-0.6,0.6v6.6c0,0.3,0.3,0.6,0.6,0.6s0.6-0.3,0.6-0.6v-6.6
		C17.1,23.4,16.9,23.2,16.5,23.2z"/>
	<path class="st0" d="M16.5,32.8c-0.3,0-0.6,0.3-0.6,0.6v3.7c0,0.3,0.3,0.6,0.6,0.6s0.6-0.3,0.6-0.6v-3.7
		C17.1,33.1,16.9,32.8,16.5,32.8z"/>
	<path class="st0" d="M33.4,23.2c-0.3,0-0.6,0.3-0.6,0.6v4.6c0,0.3,0.3,0.6,0.6,0.6s0.6-0.3,0.6-0.6v-4.6
		C34,23.4,33.8,23.2,33.4,23.2z"/>
	<path class="st0" d="M33.4,31.3c-0.3,0-0.6,0.3-0.6,0.6v5.2c0,0.3,0.3,0.6,0.6,0.6s0.6-0.3,0.6-0.6v-5.2
		C34,31.6,33.8,31.3,33.4,31.3z"/>
	<path class="st0" d="M29.4,23.2c-0.3,0-0.6,0.3-0.6,0.6v8.6c0,0.3,0.3,0.6,0.6,0.6s0.6-0.3,0.6-0.6v-8.6
		C30,23.4,29.8,23.2,29.4,23.2z"/>
	<path class="st0" d="M29.4,35.1c-0.3,0-0.6,0.3-0.6,0.6v4.5c0,0.3,0.3,0.6,0.6,0.6s0.6-0.3,0.6-0.6v-4.5
		C30,35.4,29.8,35.1,29.4,35.1z"/>
	<path class="st0" d="M20.8,23.2c-0.3,0-0.6,0.3-0.6,0.6V33c0,0.3,0.3,0.6,0.6,0.6s0.6-0.3,0.6-0.6v-9.2
		C21.4,23.4,21.1,23.2,20.8,23.2z"/>
	<path class="st0" d="M20.8,35.6c-0.3,0-0.6,0.3-0.6,0.6v5.9c0,0.3,0.3,0.6,0.6,0.6s0.6-0.3,0.6-0.6v-5.9
		C21.4,35.8,21.1,35.6,20.8,35.6z"/>
	<path class="st0" d="M25.2,23.2c-0.3,0-0.6,0.3-0.6,0.6v2.9c0,0.3,0.3,0.6,0.6,0.6s0.6-0.3,0.6-0.6v-2.9
		C25.8,23.4,25.5,23.2,25.2,23.2z"/>
	<path class="st0" d="M25.2,29.9c-0.3,0-0.6,0.3-0.6,0.6v8.7c0,0.3,0.3,0.6,0.6,0.6s0.6-0.3,0.6-0.6v-8.7
		C25.8,30.1,25.5,29.9,25.2,29.9z"/>
</g>
</svg>
