<?xml version="1.0" encoding="utf-8"?>
<!-- Generator: Adobe Illustrator 22.0.1, SVG Export Plug-In . SVG Version: 6.00 Build 0)  -->
<svg version="1.1" id="Layer_1" xmlns="http://www.w3.org/2000/svg" xmlns:xlink="http://www.w3.org/1999/xlink" x="0px" y="0px"
	 viewBox="0 0 50 50" style="enable-background:new 0 0 50 50;" xml:space="preserve">
<metadata><?xpacket begin="﻿" id="W5M0MpCehiHzreSzNTczkc9d"?>
<x:xmpmeta xmlns:x="adobe:ns:meta/" x:xmptk="Adobe XMP Core 5.6-c143 79.161210, 2017/08/11-10:28:36        ">
   <rdf:RDF xmlns:rdf="http://www.w3.org/1999/02/22-rdf-syntax-ns#">
      <rdf:Description rdf:about=""/>
   </rdf:RDF>
</x:xmpmeta>
                                                                                                    
                                                                                                    
                                                                                                    
                                                                                                    
                                                                                                    
                                                                                                    
                                                                                                    
                                                                                                    
                                                                                                    
                                                                                                    
                                                                                                    
                                                                                                    
                                                                                                    
                                                                                                    
                                                                                                    
                                                                                                    
                                                                                                    
                                                                                                    
                                                                                                    
                                                                                                    
                           
<?xpacket end="w"?></metadata>
<style type="text/css">
	.st0{fill:#DCB38D;}
</style>
<path class="st0" d="M25,1c13.2,0,24,10.8,24,24S38.2,49,25,49S1,38.2,1,25S11.8,1,25,1 M25,0C11.2,0,0,11.2,0,25s11.2,25,25,25
	s25-11.2,25-25S38.8,0,25,0L25,0z"/>
<g>
	<path class="st0" d="M39.8,14.7H10.4c-0.7,0-1.4,0.6-1.4,1.4v16c0,0.7,0.6,1.4,1.4,1.4h10.9c-0.7,1.1-2,1.7-3.9,1.7v1.2h15.3v-1.2
		c-1.9,0-3.2-0.6-3.9-1.7h11c0.7,0,1.4-0.6,1.4-1.4v-16C41.1,15.3,40.5,14.7,39.8,14.7z M28.6,35.1h-7.1c0.6-0.5,1-1.1,1.2-1.7h4.8
		C27.6,34,27.9,34.6,28.6,35.1z M39.9,32.1c0,0.1,0,0.1-0.1,0.1H10.4c-0.1,0-0.1,0-0.1-0.1v-16c0-0.1,0-0.1,0.1-0.1h29.4
		c0.1,0,0.1,0,0.1,0.1V32.1z"/>
	<path class="st0" d="M30,23.5v-1.8c0-0.8-0.7-1.5-1.5-1.5h-8c-0.8,0-1.5,0.7-1.5,1.5v4.7c0,0.8,0.7,1.5,1.5,1.5h6
		c0.5,1.1,1.6,1.9,2.9,1.9c1.8,0,3.2-1.4,3.2-3.2C32.6,25.1,31.5,23.8,30,23.5z M20.5,21.4h8c0.1,0,0.3,0.1,0.3,0.3v0.5h-8.5v-0.5
		C20.3,21.6,20.4,21.4,20.5,21.4z M26.2,26.7C26.2,26.7,26.2,26.7,26.2,26.7l-5.7,0c-0.1,0-0.3-0.1-0.3-0.3v-3h8.5v0.1
		C27.3,23.8,26.2,25.1,26.2,26.7z M29.4,28.6c-1.1,0-1.9-0.9-1.9-1.9s0.9-1.9,1.9-1.9s1.9,0.9,1.9,1.9S30.5,28.6,29.4,28.6z"/>
	<path class="st0" d="M30.1,25.7l-1,1l-0.1-0.2c-0.2-0.3-0.6-0.4-0.9-0.2c-0.3,0.2-0.4,0.6-0.2,0.9l0.5,0.8c0.1,0.2,0.3,0.3,0.4,0.3
		c0,0,0.1,0,0.1,0c0.2,0,0.3-0.1,0.4-0.2l1.6-1.5c0.3-0.2,0.3-0.6,0-0.9C30.7,25.4,30.3,25.4,30.1,25.7z"/>
</g>
</svg>
