<?xml version="1.0" encoding="utf-8"?>
<!-- Generator: Adobe Illustrator 22.0.1, SVG Export Plug-In . SVG Version: 6.00 Build 0)  -->
<svg version="1.1" id="Layer_1" xmlns="http://www.w3.org/2000/svg" xmlns:xlink="http://www.w3.org/1999/xlink" x="0px" y="0px"
	 viewBox="0 0 50 50" style="enable-background:new 0 0 50 50;" xml:space="preserve">
<metadata><?xpacket begin="﻿" id="W5M0MpCehiHzreSzNTczkc9d"?>
<x:xmpmeta xmlns:x="adobe:ns:meta/" x:xmptk="Adobe XMP Core 5.6-c143 79.161210, 2017/08/11-10:28:36        ">
   <rdf:RDF xmlns:rdf="http://www.w3.org/1999/02/22-rdf-syntax-ns#">
      <rdf:Description rdf:about=""/>
   </rdf:RDF>
</x:xmpmeta>
                                                                                                    
                                                                                                    
                                                                                                    
                                                                                                    
                                                                                                    
                                                                                                    
                                                                                                    
                                                                                                    
                                                                                                    
                                                                                                    
                                                                                                    
                                                                                                    
                                                                                                    
                                                                                                    
                                                                                                    
                                                                                                    
                                                                                                    
                                                                                                    
                                                                                                    
                                                                                                    
                           
<?xpacket end="w"?></metadata>
<style type="text/css">
	.st0{fill:#DCB38D;}
</style>
<path class="st0" d="M25,1c13.2,0,24,10.8,24,24S38.2,49,25,49S1,38.2,1,25S11.8,1,25,1 M25,0C11.2,0,0,11.2,0,25s11.2,25,25,25
	s25-11.2,25-25S38.8,0,25,0L25,0z"/>
<g>
	<path class="st0" d="M27.2,24.9l1.3,13c0.1,0.8,0.8,1.5,1.6,1.5h3.4c0.9,0,1.6-0.6,1.6-1.5l1.2-12.9H27.2z M35,26.1l-0.1,1.1
		c-0.4,0.1-0.7,0.3-1,0.5c-0.5,0.3-1,0.8-2.5,1c-1.7,0.3-2.4,0.1-2.6-0.1l-0.2-2.5H35z M33.9,37.7c0,0.2-0.2,0.4-0.4,0.4h-3.4
		c-0.2,0-0.4-0.2-0.4-0.3L29,30c0.3,0.1,0.6,0.1,1,0.1c0.5,0,1,0,1.6-0.1c1.8-0.3,2.6-0.9,3.1-1.2c0,0,0,0,0.1-0.1L33.9,37.7z"/>
	<path class="st0" d="M20.7,32.5h-2.9c-0.3,0-0.6,0.3-0.6,0.6s0.3,0.6,0.6,0.6h2.9c0.3,0,0.6-0.3,0.6-0.6S21.1,32.5,20.7,32.5z"/>
	<path class="st0" d="M23.4,21.1c-0.2-0.4-0.4-0.9-0.6-1.2c-0.3-0.5-0.6-1-0.8-1.6c0.5-0.5,1.4-1.7,1.4-3.1c0-1-0.5-2-1.4-2.8
		c-0.1-1-1-1.8-2-1.8h-1.8c-1.1,0-2,0.9-2,2.1v0.8c0,0.3,0.3,0.6,0.6,0.6c0.1,0,0.2,0,0.3-0.1c-0.1,1.5-0.4,3.9-1.7,5.9
		c-0.3,0.4-0.5,0.9-0.7,1.5c0,0,0,0,0,0c0,0,0,0,0,0c-1.6,4.4-1.7,13.4,0.1,16.6c0.6,1.1,1.4,1.4,1.9,1.4h4.7c0.5,0,1.3-0.2,1.9-1.4
		C25.2,34.7,25.1,25.5,23.4,21.1C23.4,21.1,23.4,21.1,23.4,21.1z M17.4,19c0.4,0.2,1,0.3,1.7,0.3c0.3,0,0.7,0,1-0.2l0.8-0.3
		c0.2,0.6,0.5,1.1,0.8,1.6c0.1,0.1,0.1,0.3,0.2,0.4c-0.7,0.2-2.3,0.2-3.4-0.3c-0.7-0.3-1.3-0.4-1.8-0.3C17,19.9,17.2,19.5,17.4,19z
		 M21.6,16.9c-0.3-1.1-0.4-2.1-0.4-2.9c0.1,0.1,0.2,0.1,0.3,0.1c0.1,0,0.2,0,0.3-0.1c0.2,0.4,0.4,0.8,0.4,1.2
		C22.2,15.9,21.9,16.5,21.6,16.9z M20.1,11.9C20.1,11.9,20.1,11.9,20.1,11.9c-0.1,0.1-0.1,0.3-0.2,0.4c0,0.1-0.2,2.7,0.6,5.4
		L19.7,18c-0.7,0.2-1.4,0-1.9-0.2c0.8-2.8,0.6-5.4,0.6-5.5c0-0.2-0.1-0.3-0.2-0.4c0,0,0,0,0.1,0H20.1z M22.3,37.4
		c-0.2,0.3-0.5,0.7-0.8,0.7h-4.7c-0.3,0-0.6-0.4-0.8-0.7c-1.6-2.8-1.5-11.4,0-15.5c0.1-0.1,0.8-0.6,2-0.1c0.8,0.3,1.8,0.5,2.8,0.5
		c0.6,0,1.2-0.1,1.6-0.2C23.8,26.3,23.8,34.6,22.3,37.4z"/>
</g>
</svg>
