<?xml version="1.0" encoding="utf-8"?>
<!-- Generator: Adobe Illustrator 22.0.1, SVG Export Plug-In . SVG Version: 6.00 Build 0)  -->
<svg version="1.1" id="Layer_1" xmlns="http://www.w3.org/2000/svg" xmlns:xlink="http://www.w3.org/1999/xlink" x="0px" y="0px"
	 viewBox="0 0 50 50" style="enable-background:new 0 0 50 50;" xml:space="preserve">
<metadata><?xpacket begin="﻿" id="W5M0MpCehiHzreSzNTczkc9d"?>
<x:xmpmeta xmlns:x="adobe:ns:meta/" x:xmptk="Adobe XMP Core 5.6-c143 79.161210, 2017/08/11-10:28:36        ">
   <rdf:RDF xmlns:rdf="http://www.w3.org/1999/02/22-rdf-syntax-ns#">
      <rdf:Description rdf:about=""/>
   </rdf:RDF>
</x:xmpmeta>
                                                                                                    
                                                                                                    
                                                                                                    
                                                                                                    
                                                                                                    
                                                                                                    
                                                                                                    
                                                                                                    
                                                                                                    
                                                                                                    
                                                                                                    
                                                                                                    
                                                                                                    
                                                                                                    
                                                                                                    
                                                                                                    
                                                                                                    
                                                                                                    
                                                                                                    
                                                                                                    
                           
<?xpacket end="w"?></metadata>
<style type="text/css">
	.st0{fill:#DCB38D;}
</style>
<path class="st0" d="M25,1c13.2,0,24,10.8,24,24S38.2,49,25,49S1,38.2,1,25S11.8,1,25,1 M25,0C11.2,0,0,11.2,0,25s11.2,25,25,25
	s25-11.2,25-25S38.8,0,25,0L25,0z"/>
<g>
	<path class="st0" d="M38.1,16.3c-3.8-2.7-8.4-4.1-13.1-4.1c-4.7,0-9.2,1.4-13.1,4.1c-0.3,0.2-0.4,0.6-0.2,0.9
		c0.2,0.3,0.6,0.4,0.9,0.2c3.6-2.5,7.9-3.9,12.4-3.9c4.4,0,8.7,1.3,12.4,3.9c0.1,0.1,0.2,0.1,0.4,0.1c0.2,0,0.4-0.1,0.5-0.3
		C38.4,16.9,38.4,16.5,38.1,16.3z"/>
	<path class="st0" d="M25,22.8c-2.5,0-4.9,0.8-7,2.2c-0.3,0.2-0.4,0.6-0.2,0.9s0.6,0.4,0.9,0.2c1.8-1.3,4-2,6.3-2s4.4,0.7,6.3,2
		c0.1,0.1,0.2,0.1,0.4,0.1c0.2,0,0.4-0.1,0.5-0.3c0.2-0.3,0.1-0.7-0.2-0.9C29.9,23.6,27.5,22.8,25,22.8z"/>
	<path class="st0" d="M21.1,29.4c-0.3,0.2-0.4,0.6-0.2,0.9c0.1,0.2,0.3,0.3,0.5,0.3c0.1,0,0.2,0,0.4-0.1c1.9-1.3,4.5-1.3,6.4-0.1
		c0.3,0.2,0.7,0.1,0.9-0.2c0.2-0.3,0.1-0.7-0.2-0.9C26.5,27.7,23.3,27.8,21.1,29.4z"/>
	<path class="st0" d="M25,17.6c-3.6,0-7.1,1.1-10,3.1c-0.3,0.2-0.4,0.6-0.2,0.9c0.2,0.3,0.6,0.4,0.9,0.2c2.7-1.9,5.9-2.9,9.3-2.9
		c3.3,0,6.5,1,9.3,2.9c0.1,0.1,0.2,0.1,0.4,0.1c0.2,0,0.4-0.1,0.5-0.3c0.2-0.3,0.1-0.7-0.2-0.9C32,18.7,28.6,17.6,25,17.6z"/>
	<path class="st0" d="M25,32.7c-1.4,0-2.6,1.1-2.6,2.6s1.1,2.6,2.6,2.6s2.6-1.1,2.6-2.6S26.4,32.7,25,32.7z M25,36.6
		c-0.7,0-1.3-0.6-1.3-1.3s0.6-1.3,1.3-1.3s1.3,0.6,1.3,1.3S25.7,36.6,25,36.6z"/>
</g>
</svg>
