<?xml version="1.0" encoding="utf-8"?>
<!-- Generator: Adobe Illustrator 21.1.0, SVG Export Plug-In . SVG Version: 6.00 Build 0)  -->
<svg version="1.1" id="Loading_messages_1_" xmlns="http://www.w3.org/2000/svg" xmlns:xlink="http://www.w3.org/1999/xlink"
	 x="0px" y="0px" viewBox="0 0 24 21.5" style="enable-background:new 0 0 24 21.5;" xml:space="preserve">
<style type="text/css">
	.st0{fill:#6A4735;}
</style>
<g>
	<path class="st0" d="M12,0C5.4,0,0,4.5,0,10c0,2.2,0.9,4.4,2.5,6.1c-0.1,1-0.3,2.6-1.3,3.8C1,20.2,0.9,20.6,1.1,21
		c0.2,0.3,0.5,0.5,0.9,0.5c0,0,0.1,0,0.1,0c2.6-0.3,4.8-1.3,6-2C9.4,19.8,10.7,20,12,20c6.6,0,12-4.5,12-10S18.6,0,12,0z M12,18
		c-1.3,0-2.5-0.2-3.7-0.6c-0.3-0.1-0.6-0.1-0.8,0.1c-0.7,0.4-1.9,1.1-3.5,1.6c0.5-1.3,0.6-2.5,0.6-3.3c0-0.3-0.1-0.5-0.3-0.7
		C2.8,13.6,2,11.8,2,10c0-4.4,4.5-8,10-8s10,3.6,10,8S17.5,18,12,18z"/>
	<circle class="st0" cx="7" cy="10" r="1.5"/>
	<circle class="st0" cx="12" cy="10" r="1.5"/>
	<circle class="st0" cx="17" cy="10" r="1.5"/>
</g>
</svg>
