<?xml version="1.0" encoding="utf-8"?>
<!-- Generator: Adobe Illustrator 21.1.0, SVG Export Plug-In . SVG Version: 6.00 Build 0)  -->
<svg version="1.1" id="Layer_1" xmlns="http://www.w3.org/2000/svg" xmlns:xlink="http://www.w3.org/1999/xlink" x="0px" y="0px"
	 viewBox="0 0 42.1 42.1" style="enable-background:new 0 0 42.1 42.1;" xml:space="preserve">
<style type="text/css">
	.st0{fill:#4E4E4E;}
</style>
<g>
	<path class="st0" d="M21.1,3.8c5.6,0,6.3,0,8.5,0.1c2.1,0.1,3.2,0.4,3.9,0.7c1,0.4,1.7,0.8,2.4,1.6s1.2,1.4,1.6,2.4
		c0.3,0.7,0.6,1.9,0.7,3.9c0.1,2.2,0.1,2.9,0.1,8.5s0,6.3-0.1,8.5c-0.1,2.1-0.4,3.2-0.7,3.9c-0.4,1-0.8,1.7-1.6,2.4
		c-0.7,0.7-1.4,1.2-2.4,1.6c-0.7,0.3-1.9,0.6-3.9,0.7c-2.2,0.1-2.9,0.1-8.5,0.1s-6.3,0-8.5-0.1c-2.1-0.1-3.2-0.4-3.9-0.7
		c-1-0.4-1.7-0.8-2.4-1.6c-0.7-0.7-1.2-1.4-1.6-2.4c-0.3-0.7-0.6-1.9-0.7-3.9c-0.1-2.2-0.1-2.9-0.1-8.5s0-6.3,0.1-8.5
		C4,10.5,4.3,9.4,4.6,8.6C5,7.7,5.5,7,6.2,6.2S7.7,5,8.6,4.6c0.7-0.3,1.9-0.6,3.9-0.7C14.8,3.8,15.4,3.8,21.1,3.8 M21.1,0
		c-5.7,0-6.4,0-8.7,0.1c-2.2,0.1-3.8,0.5-5.1,1C5.9,1.6,4.7,2.4,3.5,3.5S1.6,5.9,1.1,7.3c-0.5,1.3-0.9,2.9-1,5.1
		C0,14.6,0,15.3,0,21.1s0,6.4,0.1,8.7c0.1,2.2,0.5,3.8,1,5.1c0.5,1.4,1.3,2.6,2.4,3.7s2.3,1.9,3.7,2.4c1.3,0.5,2.9,0.9,5.1,1
		c2.2,0.1,3,0.1,8.7,0.1s6.4,0,8.7-0.1c2.2-0.1,3.8-0.5,5.1-1c1.4-0.5,2.6-1.3,3.7-2.4s1.9-2.3,2.4-3.7c0.5-1.3,0.9-2.9,1-5.1
		c0.1-2.2,0.1-3,0.1-8.7s0-6.4-0.1-8.7c-0.1-2.2-0.5-3.8-1-5.1c-0.5-1.4-1.3-2.6-2.4-3.7s-2.3-1.9-3.7-2.4c-1.3-0.5-2.9-0.9-5.1-1
		C27.5,0,26.8,0,21.1,0L21.1,0z"/>
	<path class="st0" d="M21.1,10.2c-6,0-10.8,4.8-10.8,10.8s4.8,10.8,10.8,10.8S31.9,27,31.9,21.1S27,10.2,21.1,10.2z M21.1,28.1
		c-3.9,0-7-3.1-7-7s3.1-7,7-7s7,3.1,7,7S24.9,28.1,21.1,28.1z"/>
	<circle class="st0" cx="32.3" cy="9.8" r="2.5"/>
</g>
</svg>
